<?xml version="1.0" encoding="utf-8"?>
<!-- Generator: Adobe Illustrator 24.1.1, SVG Export Plug-In . SVG Version: 6.00 Build 0)  -->
<svg version="1.1" id="Layer_1" xmlns="http://www.w3.org/2000/svg" xmlns:xlink="http://www.w3.org/1999/xlink" x="0px" y="0px"
	 viewBox="0 0 317.3 74.8" style="enable-background:new 0 0 317.3 74.8;" xml:space="preserve">
<style type="text/css">
	.st0{opacity:0.9;}
	.st1{fill:#F1EDFF;}
	.st2{fill:#E7E1FF;}
	.st3{fill:#F0EBFF;}
	.st4{fill:#C4B3FF;}
	.st5{fill:#CCBEFF;}
	.st6{fill:#C8B8FF;}
	.st7{fill:#CFC2FF;}
	.st8{fill:#DCD3FF;}
	.st9{fill:#D7CCFF;}
	.st10{fill:#E1D9FF;}
	.st11{fill:#E9E3FF;}
	.st12{enable-background:new    ;}
</style>
<g class="st0">
	<g class="st0">
		<g>
			<path class="st1" d="M33.6,39.9h-1.7c0.2,1,0.2,2-0.1,3c-1.7,1.7,4.4,0.9,11.2,0.6C43,41.6,40.7,40.1,33.6,39.9z"/>
		</g>
		<g>
			<path class="st2" d="M2.2,26.7L0,28.5c0.1,0,0.2,0.1,0.3,0.1L2.2,26.7z"/>
		</g>
		<g>
			<path class="st1" d="M13.1,38.3c4.4-0.6,6.9-2,10.1-2.9c-1.7-0.4-3.4-1.1-4.8-2.2c-1.8-1.1-3.8-1.8-5.8-2.2
				C11,32,9.3,32.7,7.5,33.2c1.1,0.1,1.1,0.1,2.3-0.5l-2.3,1.3c-0.8,0.4-1.3,0.8-1.3,0.8c1,0.9,6.5,0.1,10-1c-2,1-4.8,2.5-7,3.9
				c0.8,0.2,1.6,0.4,2.4,0.6c1-0.1,1.9-0.3,2.8-0.4L13.1,38.3z"/>
		</g>
		<g>
			<path class="st1" d="M59.3,54.4L58.2,54c-1.3,0.6-2.7,1.2-4.1,1.8l3.5,1.3c0.7-0.3,1.5-0.6,2.4-0.9c0.1,0.2,0.2,0.4,0.4,0.6
				c-0.2,0.4-0.5,0.8-1,0.9l0.1,0l2.1,0.7c-0.2-0.3-0.4-0.5-0.6-0.8c2.1,0,4.2,0.6,4.7-0.6C65.1,56,61.9,55.3,59.3,54.4z"/>
		</g>
		<g>
			<path class="st3" d="M94.2,55.8c-0.3-1.2-0.3-2.4,0.2-3.6c-2.5,0.8-6.3-0.9-8.8-0.1c2.5-6.3-16.8-8-21-11.5
				c-5.3-3.6-15.5-4.3-22.2-6.4c-1.3,0.7-0.9,1.7-3.5,2.2c1.8,0.6,3.7,0.6,5.5,0c0.4-0.1,0.8-0.2,1.2-0.4c-0.4,0.1-0.8,0.3-1.2,0.4
				c-1.5,0.4-3.1,0.7-4.7,0.9c0.6,0,1,0.2,0.9,0.6c-0.3,0.3-0.7,0.5-1.1,0.5c6.2,2,11.8,4.4,12.4,8.6l1.7,0.2
				c6.9,0.7,9.3,2.3,9.1,4.1c4,0,7.9,0.2,11.8,0.8c4.8,1.4,9.6,3.1,14.3,5c1.5-0.5,2.9-1,4.4-1.7C93.4,55.5,93.8,55.6,94.2,55.8z"/>
		</g>
		<g>
			<path class="st4" d="M317.2,24.5c-1.6-6.4-16.6-13.5-32.6-13.6c-16.4-0.9-32.9-1.7-50.4-2.3c2.5,2.8,0.6,6.1-6.9,8
				c-3.9,1-10.8-1.3-12.5-0.2c-9,2.4-11.3,5-22.2,6.5c1.9,0.9,2.1,2.8,4.4,2.9c7.4,2.2,15.2,2.3,22.6,0.2c2.6-0.7,7.9,2.7,1.8,3.6
				c7.6,0.7,12.8-0.6,18.5-0.7c16.3-0.8,5.5,5.4,10.8,8.8c1,1,2.2,1.7,3.6,2c11.3-2.8,21.8-6.4,32.7-9.2c2.6-0.6,6.3,1.1,8.9,0.5
				C305.5,30.2,318.4,26.9,317.2,24.5z"/>
		</g>
		<g>
			<path class="st5" d="M166,10.5c3.1-1,6.3-1.6,9.5-2.1l-15.1-3.3c-1.3,0.7-2.7,1.3-4,2C160.4,7.6,163.7,8.6,166,10.5z"/>
		</g>
		<g>
			<path class="st5" d="M240.1,41.3c1.4-3.1-3.1-3.3-6.5-5.8c-7.7,2-13.1,1.4-17.5-1.6c-0.3,0.8-3.5,0.2-4.8,0.6
				c0.3-0.8-2.5-2.1,0.1-2.8c-2.6,0.7-5.4-0.6-7,0.5c-4.1-1,3.3-2.2,0.4-3.5c-14.5,4.5-26.4-1.9-21.2-6c2-1.9,5.8-2.9,8.2-5.6
				s9.6-1.2,15-0.5c-1.5-1.6-9.2-2.4-5-4.2c4.1-1.1,8.7-2.5,11.4-4.1c-11.2,0.5-24.8,2.7-30.9,1.7l-6.9-1.5
				c-3.2,0.4-6.4,1.1-9.5,2.1c-2.3-1.9-5.7-2.9-9.5-3.3c-1.3,0.6-2.5,1.5-3.5,2.5c-3.6,3,10.2,2.7,13.6,5.2
				c-14.4,1.9-16.7,7.3-11.7,11.4c3.5,2.5,7.3,4.2,13.3,6c3.8,0.6,7.7,0.5,11.5-0.4c-1.3,0.4-5.1,1.4-4.2,1.8
				c7.3,1.4,10.4,4.7,19.9,3.5c-0.3,0.8,0.6,1.2-2,1.9c5.1-1.4,2.1,2.9,7.3,1.5c2.5,2.1,1.7,6.4,8.7,5.9c1.6-0.2,3.2-0.2,4.8-0.1
				c5.5-1.5,11.2-2.5,16.9-2.8c4.5-0.3,8.9-0.8,13.3-1.6C242.3,42,240.4,41.9,240.1,41.3z"/>
		</g>
		<g>
			<path class="st6" d="M250.7,37.9c-5.3-3.4,5.5-9.6-10.8-8.8c-5.7,0.1-10.9,1.4-18.5,0.7c6.1-0.9,0.8-4.3-1.8-3.6
				c-7.4,2.1-15.3,2-22.6-0.2c-2.2-0.1-2.5-2.1-4.4-2.9c10.9-1.5,13.2-4.2,22.2-6.5c1.6-1.1,8.6,1.2,12.5,0.2c7.5-2,9.4-5.3,6.9-8
				c-6.2-0.2-12.5-0.3-19.1-0.4l-1.8,0.1c-2.8,1.6-7.3,3-11.4,4.1c-4.2,1.8,3.4,2.5,5,4.2c-5.4-0.6-12.7-2.1-15,0.5
				s-6.2,3.7-8.2,5.6c-5.2,4.1,6.7,10.5,21.2,6c2.8,1.3-4.5,2.6-0.4,3.5c1.6-1.1,4.5,0.2,7-0.5c-2.6,0.7,0.3,2-0.1,2.8
				c1.3-0.3,4.5,0.2,4.8-0.6c4.4,3,9.7,3.6,17.5,1.6c3.4,2.5,7.8,2.8,6.5,5.8c0.3,0.6,2.2,0.7,4.3,0.7c3.4-0.6,6.7-1.3,9.9-2.1
				C253,39.6,251.7,38.9,250.7,37.9z"/>
		</g>
		<g>
			<path class="st7" d="M209.4,46.5c-7,0.5-6.2-3.8-8.7-5.9c-5.1,1.4-2.2-2.9-7.3-1.5c2.6-0.7,1.6-1.1,2-1.9
				c-9.6,1.2-12.7-2.1-19.9-3.5c-0.9-0.4,2.9-1.5,4.2-1.8c-3.8,0.9-7.7,1-11.5,0.4c-6-1.8-9.8-3.5-13.3-6c-5-4.1-2.7-9.5,11.7-11.4
				c-3.5-2.5-17.2-2.1-13.6-5.2c1-1.1,2.2-1.9,3.5-2.5c-9.4-1.1-21.9,1.1-32.1,2.2c-0.3,1.1,0.1,2,1.7,2.4c12.1,3.4,5.3,8.8,14.8,13
				c1.9,0.8,7.3,1.4,8.3,1.8c4.4,2.9-0.4,6.3,4,9.2c-0.3,0.8,7-0.6,7.6,0.6c2.5,2,1.2,5.1,6.5,5.7c14.7,2,19.3,6.7,25.5,11
				c7.4-2,13.9-4.7,21.4-6.7C212.7,46.3,211,46.3,209.4,46.5z"/>
		</g>
		<g>
			<path class="st8" d="M49,0.3c-1.7,0.3-3.3,0.6-4.9,0.9s-3.1,0.5-4.7,0.7C45,2.1,50.6,3.2,55.8,5.2c3.5,1.4,6.7,3.3,9.5,5.8
				c1.7,1.5,21.9-1.1,24.8,2.9c-0.7,1.6-4.5,2.7-9.3,3.5c6.6,1.2,12.8,4.1,18,8.3c4.1,3.1,7.6,6.2,14.5,8.3
				c14,4.2,25.6,11.2,27.1,18.4c0.5,3.1,9.8,4.5,17.5,6.6c3-0.9,6-1.8,8.9-2.6c-4.3-1.7-7.9-3.5-9-5.5c-2.7-6.8-8.7-11.3-24.2-14.5
				c-5.1-1.3-1.5-7.1-4.3-8.4c-11.1-5.8-16.8-11-24.5-17c-1.5-1.5-4.7-3.3-8.6-5.1c-6.7,0-13.3,0.6-20,0c-9.7,0.8-13.3-1-16-2.9
				c-1.3-1-2.7-1.8-4.2-2.4C53.8-0.1,51.3-0.2,49,0.3z"/>
		</g>
		<g>
			<path class="st9" d="M167.3,42.1c-5.4-0.6-4-3.7-6.5-5.7c-0.6-1.2-8,0.1-7.6-0.6c-4.4-2.9,0.4-6.3-4-9.2c-1-0.4-6.4-1-8.3-1.8
				c-9.5-4.2-2.7-9.5-14.8-13c-1.6-0.3-2-1.2-1.7-2.4h-0.1c1.5-2.3-4.9-2-6.5-2c-8,0.3-11.3-0.7-17.8-1.5c-1.2,0-2.5,0-3.7,0
				c3.9,1.8,7.1,3.6,8.6,5.1c7.7,6,13.4,11.3,24.5,17c2.8,1.3-0.7,7.1,4.3,8.4c15.5,3.2,21.5,7.7,24.2,14.5c1,2,4.7,3.8,9,5.5
				c2.5-0.7,5-1.3,7.4-1.8c2.5-0.7,6.3,1,6.3,1c4.1-0.5,8.2-1.4,12.2-2.5C186.6,48.8,182,44,167.3,42.1z"/>
		</g>
		<g>
			<path class="st10" d="M28.7,2.9c-1.9,0.6-4,1.3-5.9,1.7c-2.7,0.8-3.9,0.7-4.8,0.6c-0.9-0.3-1.8-0.4-2.7-0.3l1.2,0.2l-1.8,0.2
				c2.9,1.2,4.9,2.7,5,4.7c3.3-0.6,6.1-0.7,7.4,0c2.2,1.2,4.3,2.5,6.4,3.9c2.2,1.5,4.4,2.8,6.7,4c5,2.5,11.7,4.5,22.5,5.6
				c8.7,0.8-1.1,8.6,11.3,11c4.1,0.8,12.1,0.5,13.4,2.8c1,3.2-5,7,3.2,8.7c20.7,3.5,37.1,9.9,39.8,17.7c8.2,0.7,17.8-2.1,27.6-4.9
				c-7.7-2.1-17-3.5-17.5-6.6c-1.5-7.1-13.1-14.2-27.1-18.4c-7-2.1-10.5-5.2-14.5-8.3c-5.2-4.2-11.4-7-18-8.3
				c4.8-0.8,8.6-1.9,9.3-3.5c-2.9-4-23.1-1.4-24.8-2.9c-2.8-2.5-6.1-4.4-9.5-5.8c-5.3-2-10.8-3.1-16.4-3.4
				C35.7,2.3,32.2,2.6,28.7,2.9z"/>
		</g>
		<g>
			<path class="st11" d="M90.6,46.2c-8.2-1.6-2.2-5.5-3.2-8.7c-1.3-2.4-9.2-2-13.4-2.8c-12.4-2.4-2.6-10.3-11.3-11
				c-10.8-1.1-17.5-3.1-22.5-5.6c-2.3-1.2-4.6-2.5-6.7-4c-2.1-1.4-4.2-2.7-6.4-3.9c-1.3-0.7-4.1-0.6-7.4,0c0.1,0.9-0.2,1.8-0.6,2.6
				c-0.2,0.8,2,1.3,4.9,1.7c2.8,0.3,5.6,0.8,8.4,1.4c2.8,2.6-2.1,5.5-6.7,8.4l-2,1.7c-0.1-0.1-0.2-0.1-0.3-0.2
				c-0.6,0.4-1.2,0.8-1.7,1.2c1.8,0.3,3.5,0.7,5.2,1.2c0.6-0.1,1.2-0.1,1.9-0.1l-0.9,0.4c2,0.6,3.9,1.5,5.6,2.7
				c1.3,1.2,2.9,2,4.6,2.5c0.8-0.2,1.6-0.3,2.4-0.3c-0.6,0.1-1.2,0.3-1.7,0.5c6.8,2.1,17,2.6,22.3,6.2c2.1,1.8,7.9,3,13,4.6
				s9.3,3.7,8,6.8c2.5-0.8,6.3,0.8,8.8,0.1c-0.5,1.1-0.5,2.4-0.2,3.6c2.7,1,5.9,1.8,6.5,2.8c-0.5,1.2-2.7,0.6-4.8,0.5l0.6,0.8
				l0.8,0.3c1.3-0.1,2.5-0.4,3.7-0.8c1.3-0.9,2.7-1.9,3.8-2.7c-0.4,1-1.9,2-3.8,2.7c-0.6,0.4-1.2,0.9-1.8,1.5c3,0.9,6,1.7,9.1,2.3
				c0.7-0.2,1.3-0.3,1.9-0.5l-1.7,0.5l1.3,0.3l12.6-3.7c3.3,2.8,7.4,4.4,11.8,4.6C127.7,56,111.2,49.6,90.6,46.2z"/>
		</g>
	</g>
</g>
<g class="st12">
	<path d="M55.1,39.3V13.7h1.4v25.6H55.1z M70.2,39.3L58.9,27v12.3h-1.4V13.7h1.4v11.8l11.5-11.8h1.9L60.1,26.2l12,13.1H70.2z
		 M73.6,39.3L61.4,26.2l12.3-12.5h1.9L63.3,26.2l12.3,13.1H73.6z"/>
	<path d="M94.9,20.3c-1.8-2.3-3.6-3.4-6.2-3.4c-3,0-4.2,1.3-4.2,3.1c0,2.5,2.2,3.3,5.4,4.4c3.7,1.3,7.8,2.7,7.8,7.9
		c0,4.8-4,7.5-9.1,7.5c-3.8,0-6.7-1.3-9.5-4.7l1-0.9c2.7,3.4,5.5,4.2,8.5,4.2c3.9,0,7.7-1.9,7.7-6.2c0-3.9-3.2-5.2-6.8-6.5
		c-4-1.4-6.3-2.4-6.3-5.7c0-2.5,1.7-4.5,5.6-4.5c2.7,0,5,0.9,7.2,3.8L94.9,20.3z M96.7,18.6c-2.7-3.4-5.1-4.1-7.8-4.1
		c-4.8,0-7.1,2.4-7.1,5.9c0,3.6,3.3,5.1,6.5,6.2c4.4,1.5,6.6,2.7,6.6,6.2c0,2.5-2.4,4.7-6.3,4.7c-2.9,0-5.6-1.1-7.8-4l1.1-1
		c1.8,2.4,3.8,3.7,6.7,3.7c3.3,0,4.9-1.4,4.9-3.3c0-2.7-2.1-3.6-5.6-4.8c-3.6-1.3-7.5-2.7-7.5-7.5c0-4.6,3.4-7.2,8.4-7.2
		c3.5,0,6.2,1.2,8.8,4.5L96.7,18.6z"/>
</g>
<g class="st12">
	<path d="M125.9,13.7h1.4v16.9c0,5.8-4.4,9.2-10.8,9.2c-6.2,0-10.8-3.5-10.8-9.2V13.7h1.4v16.9c0,4.8,4,7.9,9.4,7.9
		c5.6,0,9.4-3,9.4-7.9V13.7z M123.4,13.7h1.4v16.7c0,4.3-3.3,7.1-8.4,7.1c-4.9,0-8.3-2.9-8.3-7.1V13.7h1.4v16.6
		c0,3.4,2.9,5.8,6.9,5.8c4.1,0,7-2.3,7-5.7V13.7z"/>
</g>
<g class="st12">
	<path d="M155.1,35.4c-2.4,2.8-5.4,4.4-9.6,4.4c-8.1,0-11.9-6.5-11.9-13.3c0-6.8,3.8-13.3,11.9-13.3c4.4,0,7.5,1.7,9.6,4.4l-1,0.9
		c-2.5-2.9-4.6-4-8.5-4c-7.1,0-10.4,5.9-10.4,12c0,6,3.4,11.9,10.5,11.9c3.4,0,6-1.1,8.5-4L155.1,35.4z M153.3,33.8
		c-2.4,2.8-4.6,3.7-7.6,3.7c-6.3,0-9.4-5.5-9.4-11c0-5.5,2.9-11,9.3-11c3.2,0,5.5,0.9,7.7,3.7l-1.1,1c-1.6-2.2-3.7-3.3-6.6-3.3
		c-5.4,0-7.9,4.8-7.9,9.6c0,4.8,2.4,9.6,7.9,9.6c2.7,0,4.6-0.8,6.6-3.3L153.3,33.8z"/>
</g>
<g class="st12">
	<path d="M176.4,20.3c-1.8-2.3-3.6-3.4-6.2-3.4c-3,0-4.2,1.3-4.2,3.1c0,2.5,2.2,3.3,5.4,4.4c3.7,1.3,7.8,2.7,7.8,7.9
		c0,4.8-4,7.5-9.1,7.5c-3.8,0-6.7-1.3-9.5-4.7l1-0.9c2.7,3.4,5.5,4.2,8.5,4.2c3.9,0,7.7-1.9,7.7-6.2c0-3.9-3.2-5.2-6.8-6.5
		c-4-1.4-6.3-2.4-6.3-5.7c0-2.5,1.7-4.5,5.6-4.5c2.7,0,5,0.9,7.2,3.8L176.4,20.3z M178.1,18.6c-2.7-3.4-5.1-4.1-7.8-4.1
		c-4.8,0-7.1,2.4-7.1,5.9c0,3.6,3.3,5.1,6.5,6.2c4.4,1.5,6.6,2.7,6.6,6.2c0,2.5-2.4,4.7-6.3,4.7c-2.9,0-5.6-1.1-7.8-4l1.1-1
		c1.8,2.4,3.8,3.7,6.7,3.7c3.3,0,4.9-1.4,4.9-3.3c0-2.7-2.1-3.6-5.6-4.8c-3.6-1.3-7.5-2.7-7.5-7.5c0-4.6,3.4-7.2,8.4-7.2
		c3.5,0,6.2,1.2,8.8,4.5L178.1,18.6z"/>
	<path d="M187.3,39.3V13.7h10.3c8.3,0,12.2,5.8,12.2,12.8c0,7-4.1,12.8-12.2,12.8H187.3z M197.6,37.9c7.1,0,10.8-5.2,10.8-11.5
		c0-6.2-3.4-11.4-10.8-11.4h-8.9v22.9H197.6z M189.7,36.9V16h7.7c6,0,9.8,4,9.8,10.4c0,6.2-3.3,10.4-9.8,10.4H189.7z M197.4,35.6
		c5.5,0,8.4-3.8,8.4-9.1c0-5.5-3.2-9.1-8.4-9.1h-6.3v18.2H197.4z"/>
</g>
<g class="st12">
	<path d="M218.2,35.7c0.2,0.9,0.9,1.3,0.9,2.4c-0.7,1.5-2.9,0.7-3.5-0.4C215.4,36,216.8,35.1,218.2,35.7z"/>
</g>
<g class="st12">
	<path d="M244.8,35.4c-2.4,2.8-5.4,4.4-9.6,4.4c-8.1,0-11.9-6.5-11.9-13.3c0-6.8,3.8-13.3,11.9-13.3c4.4,0,7.5,1.7,9.6,4.4l-1,0.9
		c-2.5-2.9-4.6-4-8.5-4c-7.1,0-10.4,5.9-10.4,12c0,6,3.4,11.9,10.5,11.9c3.4,0,6-1.1,8.5-4L244.8,35.4z M243,33.8
		c-2.4,2.8-4.6,3.7-7.6,3.7c-6.3,0-9.4-5.5-9.4-11c0-5.5,2.9-11,9.3-11c3.2,0,5.5,0.9,7.7,3.7l-1.1,1c-1.6-2.2-3.7-3.3-6.6-3.3
		c-5.4,0-7.9,4.8-7.9,9.6c0,4.8,2.4,9.6,7.9,9.6c2.7,0,4.6-0.8,6.6-3.3L243,33.8z"/>
</g>
<g class="st12">
	<path d="M248.5,26.4c0-6.9,4.1-13.3,12.5-13.3c8.4,0,12.6,6.3,12.6,13.3c0,6.9-4.1,13.3-12.5,13.3S248.5,33.4,248.5,26.4z
		 M272.2,26.5c0-6.3-3.6-12-11.1-12c-7.4,0-11.1,5.7-11.1,11.9c0,6.3,3.6,12,11.1,12C268.6,38.4,272.2,32.7,272.2,26.5z M251.2,26.5
		c0-5.4,2.9-11,9.9-11s10,5.6,10,11c0,5.4-2.9,11-9.9,11S251.2,31.9,251.2,26.5z M269.6,26.5c0-4.7-2.6-9.6-8.5-9.6
		c-5.9,0-8.4,4.9-8.4,9.6c0,4.7,2.6,9.6,8.5,9.6C267,36.1,269.6,31.2,269.6,26.5z"/>
	<path d="M302.9,39.3V15h-1.4l-9.3,14.6L282.7,15h-1.3v24.2h-1.4V13.7h3.4l8.7,13.6l8.6-13.6h3.5v25.6H302.9z M300.4,39.3v-18
		L293.5,32h-2.7l-7-10.7v18h-1.4V16.5l9.1,14.1h1.3l9-14v22.8H300.4z"/>
</g>
<g>
	<rect x="54.2" y="44.5" width="223" height="1.3"/>
</g>
<g>
	<rect x="84.2" y="49.5" width="222" height="1.3"/>
</g>
</svg>
