<?xml version="1.0" encoding="utf-8"?>
<!-- Generator: Adobe Illustrator 24.1.1, SVG Export Plug-In . SVG Version: 6.00 Build 0)  -->
<svg version="1.1" id="Layer_1" xmlns="http://www.w3.org/2000/svg" xmlns:xlink="http://www.w3.org/1999/xlink" x="0px" y="0px"
	 viewBox="0 0 342 78" style="enable-background:new 0 0 342 78;" xml:space="preserve">
<style type="text/css">
	.st0{opacity:0.9;}
	.st1{fill:#F1EDFF;}
	.st2{fill:#E7E1FF;}
	.st3{fill:#F0EBFF;}
	.st4{fill:#C4B3FF;}
	.st5{fill:#CCBEFF;}
	.st6{fill:#C8B8FF;}
	.st7{fill:#CFC2FF;}
	.st8{fill:#DCD3FF;}
	.st9{fill:#D7CCFF;}
	.st10{fill:#E1D9FF;}
	.st11{fill:#E9E3FF;}
	.st12{enable-background:new    ;}
</style>
<g class="st0">
	<g class="st0">
		<g>
			<path class="st1" d="M307.9,39.2l1.9,0.2c-0.1-1,0-2.1,0.4-3c2-1.5-4.7-1.3-12.2-1.4C297.7,36.9,300.2,38.5,307.9,39.2z"/>
		</g>
		<g>
			<path class="st2" d="M339.4,55.6l2.6-1.5c-0.1,0-0.2-0.1-0.3-0.2L339.4,55.6z"/>
		</g>
		<g>
			<path class="st1" d="M329.8,42.7c-4.8,0.1-7.6,1.3-11.1,1.8c1.8,0.5,3.4,1.4,4.8,2.6c1.8,1.3,3.8,2.2,5.9,2.8
				c1.8-0.7,3.7-1.2,5.6-1.5c-1.1-0.3-1.1-0.3-2.5,0.3l2.6-1l1.5-0.6c-0.8-1.1-6.8-0.9-10.7-0.2c2.3-0.8,5.4-2,8-3
				c-0.8-0.3-1.6-0.6-2.4-0.9c-1,0-2.1,0-3,0.1L329.8,42.7z"/>
		</g>
		<g>
			<path class="st1" d="M280.6,23.3c0.4,0.1,0.8,0.3,1.1,0.4c1.4-0.6,3-1.1,4.7-1.6l-3.8-1.5c-0.8,0.3-1.8,0.5-2.7,0.8
				c-0.1-0.2-0.2-0.4-0.4-0.6c0.1-0.3,0.4-0.6,1.1-0.9l-0.2,0l-2.3-0.8c0.2,0.3,0.5,0.6,0.7,0.9c-2.3-0.1-4.6-0.8-5.2,0.4
				C274.3,21.4,277.8,22.2,280.6,23.3z"/>
		</g>
		<g>
			<path class="st3" d="M242.7,20.6c0.3,1.2,0.2,2.4-0.3,3.5c2.8-0.7,6.8,1.1,9.6,0.4c-3,6.2,17.9,8.6,22.3,12.3
				c5.6,3.8,16.6,4.9,23.7,7.5c1.4-0.6,1.1-1.6,4-1.9c-1.9-0.7-4-0.8-6-0.3c-0.4,0.1-0.8,0.2-1.3,0.3c0.4-0.1,0.8-0.2,1.3-0.3
				c1.7-0.3,3.4-0.5,5.2-0.6c-0.7-0.1-1.1-0.3-1-0.6c0.4-0.2,0.8-0.4,1.2-0.5c-6.6-2.4-12.5-5.1-12.9-9.3l-1.9-0.3
				c-7.6-1-10-2.7-9.7-4.6c-4.3-0.1-8.6-0.5-12.9-1.3c-5.2-1.6-10.3-3.4-15.3-5.5c-1.6,0.4-3.2,0.9-4.8,1.5
				C243.5,20.9,243.1,20.7,242.7,20.6z"/>
		</g>
		<g>
			<path class="st4" d="M0.1,46.5c1.7,6.4,17.8,13.8,35,14.2c17.8,1.2,35.6,2.4,54.5,3.3c-2.7-2.8-0.6-6.1,7.7-7.9
				c4.2-0.9,11.7,1.5,13.5,0.5c9.8-2.1,12.4-4.8,24.2-6c-2-0.9-2.3-2.9-4.7-3c-8-2.4-16.4-2.6-24.5-0.7c-2.8,0.6-8.5-2.9-1.8-3.7
				c-8.2-0.9-13.8,0.3-20,0.3c-17.6,0.4-5.9-5.5-11.5-9c-1.1-1-2.4-1.7-3.8-2.1c-12.3,2.5-23.7,6-35.6,8.5c-2.8,0.6-6.8-1.3-9.6-0.6
				C12.9,41-1.2,44,0.1,46.5z"/>
		</g>
		<g>
			<path class="st5" d="M163.4,63.6c-3.4,0.9-6.9,1.5-10.3,1.8l16.2,3.7c1.5-0.6,3-1.3,4.3-1.9C169.4,66.7,165.9,65.6,163.4,63.6z"
				/>
		</g>
		<g>
			<path class="st5" d="M83.9,31.2c-1.6,3.1,3.3,3.4,6.9,6c8.4-1.8,14.2-1.1,18.9,2c0.4-0.8,3.8-0.2,5.2-0.5
				c-0.4,0.8,2.6,2.1-0.2,2.8c2.8-0.6,5.8,0.8,7.6-0.3c4.4,1.1-3.6,2.1-0.5,3.5c15.8-4.1,28.5,2.5,22.8,6.5
				c-2.2,1.8-6.4,2.8-8.9,5.4s-10.4,1-16.3,0.2c1.6,1.7,9.9,2.6,5.3,4.3c-4.5,1-9.4,2.3-12.5,3.8c12.1-0.2,26.9-2.1,33.4-1l7.4,1.7
				c3.5-0.3,7-0.9,10.3-1.8c2.5,2,6,3,10.2,3.6c1.4-0.6,2.7-1.4,3.8-2.4c4-2.9-10.9-3-14.6-5.5c15.7-1.5,18.3-6.9,13-11.1
				c-3.7-2.6-7.7-4.4-14.2-6.3c-4.1-0.7-8.3-0.7-12.4,0.1c1.4-0.3,5.6-1.3,4.6-1.7c-7.8-1.6-11.1-5-21.5-4c0.4-0.8-0.6-1.2,2.2-1.9
				c-5.6,1.2-2.3-2.9-7.8-1.7c-2.6-2.1-1.7-6.4-9.3-6.1c-1.7,0.2-3.5,0.2-5.2,0c-6,1.4-12.2,2.1-18.3,2.3c-4.8,0.2-9.7,0.7-14.5,1.4
				C81.6,30.4,83.6,30.5,83.9,31.2z"/>
		</g>
		<g>
			<path class="st6" d="M72.3,34.4c5.7,3.5-6.1,9.5,11.5,9c6.2,0,11.8-1.2,20-0.3c-6.6,0.8-0.9,4.3,1.8,3.7
				c8.1-1.9,16.5-1.6,24.5,0.7c2.4,0.1,2.6,2.1,4.7,3c-11.8,1.3-14.4,3.9-24.2,6c-1.8,1.1-9.3-1.4-13.5-0.5c-8.2,1.8-10.3,5-7.7,7.9
				c6.7,0.3,13.6,0.6,20.6,0.8h2c3-1.5,8-2.8,12.5-3.8c4.6-1.7-3.7-2.6-5.3-4.3c5.8,0.8,13.7,2.4,16.3-0.2s6.8-3.5,8.9-5.4
				c5.7-4-7-10.6-22.8-6.5c-3-1.4,5-2.5,0.5-3.5c-1.8,1.1-4.8-0.3-7.6,0.3c2.8-0.6-0.2-2,0.2-2.8c-1.4,0.3-4.8-0.3-5.2,0.5
				c-4.7-3-10.5-3.8-18.9-2c-3.6-2.6-8.5-2.9-6.9-6c-0.3-0.6-2.3-0.7-4.7-0.8c-3.7,0.5-7.2,1.2-10.7,1.9
				C69.9,32.6,71.3,33.3,72.3,34.4z"/>
		</g>
		<g>
			<path class="st7" d="M117.3,26.6c7.6-0.3,6.7,4,9.3,6.1c5.6-1.2,2.3,2.9,7.8,1.7c-2.8,0.6-1.8,1.1-2.2,1.9
				c10.4-1,13.7,2.4,21.5,4c1,0.5-3.2,1.4-4.6,1.7c4.1-0.8,8.3-0.8,12.4-0.1c6.5,2,10.5,3.7,14.2,6.3c5.3,4.2,2.6,9.6-13,11.1
				c3.7,2.6,18.5,2.6,14.6,5.5c-1.1,1-2.4,1.9-3.8,2.4c10.1,1.4,23.7-0.5,34.7-1.3c0.3-1.1,0-2-1.7-2.4c-13-3.8-5.5-8.9-15.6-13.4
				c-2-0.9-7.9-1.6-8.9-2c-4.7-3,0.7-6.3-4-9.3c0.4-0.8-7.6,0.4-8.2-0.8c-2.6-2.1-1.1-5.2-6.9-5.9c-15.9-2.3-20.8-7.2-27.4-11.6
				c-8.1,1.9-15.2,4.3-23.4,6.2C113.8,26.8,115.6,26.8,117.3,26.6z"/>
		</g>
		<g>
			<path class="st8" d="M288.8,77.8c3.5-0.5,6.8-0.8,10-1c-5.8-0.6-11.5-2-16.9-4.2c-3.6-1.5-6.9-3.6-9.9-6.2
				c-1.7-1.6-23.6,0.3-26.6-3.8c0.8-1.5,4.9-2.5,10.2-3.1c-19.9-4.8-19.6-13-34.5-17.7s-27.4-12-28.8-19.2
				c-0.4-3.1-10.5-4.8-18.8-7.1c-3.3,0.8-6.5,1.6-9.8,2.3c4.6,1.9,8.5,3.7,9.6,5.7c2.8,6.9,9.1,11.5,25.8,15.2
				c5.5,1.5,1.4,7.2,4.5,8.5c11.8,6.1,17.8,11.5,25.8,17.8c1.6,1.6,4.9,3.5,9.1,5.4c7.2,0.2,14.4-0.1,21.6,0.7
				c10.5-0.5,14.2,1.5,17,3.5S281.7,78.5,288.8,77.8z"/>
		</g>
		<g>
			<path class="st9" d="M162.8,32.1c5.8,0.7,4.3,3.8,6.9,5.9c0.6,1.2,8.6,0.1,8.2,0.8c4.7,3-0.7,6.3,4,9.3c1,0.5,6.8,1.1,8.9,2
				c10.2,4.5,2.7,9.6,15.6,13.4c1.7,0.4,2.1,1.3,1.7,2.4h0.1c-1.7,2.2,5.2,2.2,6.9,2.2c8.7,0,12.1,1.1,19.1,2.1
				c1.3,0.1,2.7,0.1,4,0.2c-4.1-1.9-7.5-3.8-9.1-5.4c-8.1-6.3-14-11.7-25.8-17.8c-3-1.3,1-7-4.5-8.5c-16.7-3.6-23-8.3-25.8-15.2
				c-1-2.1-4.9-3.9-9.6-5.7c-2.7,0.6-5.5,1.2-8.1,1.6c-2.8,0.6-6.8-1.2-6.8-1.2c-4.5,0.4-8.9,1.2-13.3,2.2
				C142.1,24.9,146.9,29.7,162.8,32.1z"/>
		</g>
		<g>
			<path class="st10" d="M309.8,76.5c1.9-0.5,4.2-1,6.2-1.2c5.6-1,4.9,0.5,7.6,0.4l-1.2-0.3l1.8-0.1c-2.8-1.5-4.6-3.1-4.6-5.1
				c-3.4,0.3-6.2,0.2-7.5-0.6c-4.5-2.8-7.8-6-12.9-8.8s-12.1-5.2-23.7-6.8c-9.3-1.1,1.6-8.6-11.7-11.5c-4.5-1-13.1-0.9-14.4-3.3
				c-0.9-3.2,5.8-6.9-3.1-8.8c-22.3-4.2-40-11.1-42.6-18.9c-8.9-0.9-19.5,1.6-30.1,4.1c8.3,2.3,18.4,4,18.8,7.1
				c1.4,7.2,13.8,14.5,28.8,19.2s14.7,12.9,34.5,17.7c-5.2,0.6-9.4,1.6-10.2,3.1c3,4.1,24.8,2.2,26.6,3.8c2.9,2.6,6.3,4.7,9.9,6.2
				c5.4,2.2,11.1,3.6,16.9,4.2C302.6,76.6,306.2,76.5,309.8,76.5z"/>
		</g>
		<g>
			<path class="st11" d="M246.2,30.3c8.9,2,2.2,5.6,3.1,8.8c1.3,2.4,9.9,2.4,14.4,3.3c13.4,2.9,2.4,10.3,11.7,11.5
				c11.6,1.6,18.5,4,23.7,6.8s8.4,6,12.9,8.8c1.3,0.8,4.2,0.9,7.5,0.6c0-0.9,0.4-1.8,0.9-2.6c0.6-1.6-9-2.7-13.3-4.3
				c-2.7-2.8,2.6-5.3,7.8-7.9l2.3-1.5c0.1,0.1,0.2,0.1,0.3,0.2c0.7-0.4,1.3-0.7,1.9-1c-1.9-0.5-3.7-1.1-5.3-1.7c-0.7,0.1-1.3,0-2,0
				l1-0.3c-2-0.7-4-1.8-5.7-3.1c-1.3-1.3-2.9-2.3-4.7-2.8c-0.9,0.1-1.8,0.2-2.6,0.2c0.6,0,1.3-0.2,1.9-0.4
				c-7.2-2.5-18.2-3.6-23.8-7.4c-4.3-3.6-25.2-6-22.3-12.2c-2.8,0.7-6.8-1-9.6-0.4c0.5-1.1,0.7-2.4,0.3-3.5c-2.9-1.1-6.4-2-7-3
				c0.5-1.1,2.9-0.5,5.2-0.3c-0.2-0.3-0.4-0.6-0.7-0.9l-0.8-0.3c-1.4,0.1-2.7,0.3-4,0.7c-1.4,0.9-3,1.8-4.3,2.5
				c0.5-1,2.2-1.9,4.3-2.5c0.7-0.4,1.4-0.9,2-1.4c-3.2-1.1-6.5-1.9-9.8-2.6c-0.7,0.1-1.4,0.3-2.1,0.4l1.8-0.5l-1.5-0.4l-13.9,3.3
				c-3.6-2.9-8-4.7-12.6-5C206.3,19.2,223.9,26.1,246.2,30.3z"/>
		</g>
	</g>
</g>
<g class="st12">
	<path d="M56.9,32.6V6.3h1.4v26.2H56.9z M72.2,32.6L60.8,20v12.6h-1.4V6.3h1.4v12.1L72.3,6.3h1.9L62,19.1l12.1,13.4H72.2z
		 M75.6,32.6L63.3,19.1L75.6,6.3h1.9L65.2,19.1l12.3,13.4H75.6z"/>
	<path d="M96.9,13.1c-1.8-2.3-3.6-3.5-6.2-3.5c-3.1,0-4.2,1.4-4.2,3.2c0,2.6,2.3,3.3,5.4,4.5c3.7,1.4,7.8,2.8,7.8,8.1
		c0,4.9-4,7.7-9.2,7.7c-3.8,0-6.7-1.3-9.5-4.8l1-0.9c2.7,3.5,5.6,4.3,8.5,4.3c3.9,0,7.7-1.9,7.7-6.3c0-4-3.2-5.4-6.9-6.7
		c-4-1.5-6.3-2.5-6.3-5.8c0-2.6,1.8-4.6,5.6-4.6c2.7,0,5,0.9,7.2,3.9L96.9,13.1z M98.7,11.4c-2.7-3.5-5.1-4.2-7.8-4.2
		c-4.8,0-7.1,2.5-7.1,6c0,3.7,3.4,5.2,6.6,6.3c4.5,1.5,6.6,2.8,6.6,6.3c0,2.6-2.4,4.8-6.3,4.8c-2.9,0-5.6-1.1-7.8-4.1l1.1-1.1
		c1.8,2.4,3.9,3.8,6.7,3.8c3.3,0,4.9-1.4,4.9-3.4c0-2.8-2.1-3.7-5.6-4.9c-3.6-1.3-7.5-2.8-7.5-7.7c0-4.7,3.4-7.4,8.5-7.4
		c3.5,0,6.3,1.2,8.8,4.6L98.7,11.4z"/>
</g>
<g class="st12">
	<path d="M128,6.3h1.4v17.3c0,6-4.4,9.5-10.9,9.5c-6.3,0-10.8-3.5-10.8-9.5V6.3h1.4v17.3c0,4.9,4,8.1,9.4,8.1c5.6,0,9.5-3.1,9.5-8.1
		V6.3z M125.5,6.3h1.4v17.1c0,4.4-3.3,7.3-8.4,7.3c-4.9,0-8.4-3-8.4-7.3v-17h1.4v17c0,3.5,2.9,5.9,6.9,5.9c4.1,0,7-2.3,7-5.9V6.3z"
		/>
</g>
<g>
	<rect x="9.6" y="59.5" transform="matrix(1 -8.788723e-03 8.788723e-03 1 -0.5206 1.5236)" width="327" height="1"/>
</g>
<g>
	<rect x="9.6" y="35" width="327" height="1"/>
</g>
<g class="st12">
	<path d="M47.1,51.1c0,0.1,0.1,1.1-0.3,1.9c-0.5,1-1.5,2.2-1.6,2.2v0c0,0.2-0.3-0.1-0.3,0.1c0,0.2-1.2,0.6-1.3,0.8
		c-0.1,0.4-0.5,0.2-0.5,0.5c-0.7,0-0.7,0.5-1.2,0.5c-0.3,0.1-0.5,0.3-0.8,0.3c-0.2,0-0.2,0.4-0.4,0.4c-1.1,0.3-2.2,1-3.8,1
		c-0.6,0-1.2-0.1-1.8-0.3c-0.2-0.3-0.4-0.5-0.7-0.6c-0.4-0.7-0.8-1.6-1-2.6c0-1.3,0-2.3,0.2-3.4c0,0,0.1-0.2,0.1-0.2
		c0.3-1.4,0.7-3.4,1.5-4.7c0.2-0.7,0.6-1,0.8-1.7c0.3-0.3,0.5-0.9,0.9-1.1c0.1-0.2,0.2-0.5,0.4-0.7c0,0,0.2,0,0.2-0.2
		c0,0,0-0.1,0-0.1c0-0.1,0.2-0.1,0.3-0.2c0.2-0.2,0.3-0.6,0.6-0.8c0.3-0.3,0.7-0.6,0.9-1.1c0.7-0.5,1.3-1.1,2-1.7
		c0.4-0.2,0.7-0.5,1.1-0.6c0,0,0-0.1,0-0.1c0-0.1,0-0.1,0.1-0.1h0.1c0.1,0,0.2-0.2,0.3-0.2c0.3-0.2,0.6-0.1,1-0.2
		c0.1,0,0.2-0.1,0.3-0.1c0.4,0,0.7,0.3,1,0.4c0.5,0.6,0.3,1.5,0.6,1.8v0.5c0,0.7,0,1.3-0.1,1.8c-0.3,0.5-0.5,1-0.7,1.5
		c-0.1,0.4-0.3,0.4-0.4,0.7c-0.6,1.3-1,1.4-1,1.6c0,0.1-0.1,0.2-0.2,0.2h0c-0.1,0.4-0.4,0.7-0.8,0.7c-0.1,0-0.4,0-0.4-0.3
		c0-0.6,0.4-0.8,0.7-1c0.3-0.7,0.8-1.3,1.2-1.9c0-0.6,0.4-0.5,0.4-1.2c0.3-0.2,0.3-0.7,0.6-0.9c0-0.3,0.1-0.7,0.1-1.1
		c0-1.7-0.7-1.4-1.2-1.9c-0.3,0.1-0.6,0.1-0.9,0.2c-0.2,0-0.3,0.3-0.4,0.4c-0.1,0-0.1,0-0.2,0c-0.2,0-0.3,0.2-0.5,0.2
		c-0.2,0.1-0.2,0.3-0.3,0.3c0,0-0.1,0-0.1,0c-0.3,0.4-0.5,0.7-0.9,1c-0.1,0.1-0.4,0-0.4,0.3c-0.5,0.4-0.9,0.9-1.3,1.4
		c-0.2,0.2-0.3,0.6-0.6,0.6c-0.4,0.7-1,1.2-1.4,1.9c-0.4,0.5-0.8,1.4-1.2,2c0,0.3,0,0.4-0.2,0.4h0c0,0.2,0,0.4-0.2,0.4
		c-0.2,0-0.4,1.7-0.6,1.8c0.1,0.4-0.2,0.4-0.2,0.7c0,0.4-0.1,0.8-0.3,1.1c-0.1,0.9-0.2,1.7-0.3,2.4c0.2,1.7,0.5,2.4,1.6,3.5
		c0.3,0,0.5,0,0.7,0.2c0.9-0.2,2-0.2,2.8-0.4c0.1-0.1,0.4-0.3,0.5-0.3c0.1,0,0.1,0,0.2,0.1c0.2-0.4,0.5,0,0.9-0.5
		c0.3-0.1,0.6-0.2,1-0.3c0.6-0.5,1.3-0.9,2-1.3c0.7-0.6,1.5-1.4,2.1-2.1C46.4,52.6,46.7,51.9,47.1,51.1z"/>
	<path d="M46.9,50.9c0.1,0,0.2-0.3,0.4-0.4c0.4-0.1,0.6-0.6,1-0.7c0.2-0.3,0.4-0.7,0.6-1c0.4-0.1,0.7-0.4,1.2-0.4
		c0.2,0.3,0.8,0.6,0.7,1.2c0.1,0.4,0.1,0.8,0.2,1.1c0,0,0.1,0.1,0.2,0c0.2-0.1,0,0,0.2-0.1c0.3-0.2,0.6-0.1,0.6,0
		c0,0.2-0.3,0.8-0.4,0.9c0,0-0.1,0-0.2,0.1c-0.2,0.1-0.1,0-0.3,0.2c-0.2,0.1-0.3,0.2-0.3,0.2c-0.2,0.9-0.6,1.3-0.9,1.9
		c-0.1,0.1-0.5,0.4-0.4,0.6c-0.2,0-0.1,0.2-0.3,0.5c-0.5,0.6-1.1,1.1-1.7,1.6c-0.5,0.2-1.2,0-1.6-0.1c-0.2-0.5-0.2-1.3-0.2-2
		c0.1-0.2,0.1-0.5,0.2-0.7c0-0.1,0.2-0.1,0.2-0.2c0.1-0.1,0-0.3,0.1-0.4c0.2-0.5,0.2-1,0.5-1.3C46.8,51.6,46.9,51.2,46.9,50.9z
		 M47.7,52.2c-0.2,0-0.2,0.3-0.3,0.4c-0.3,0.6-0.5,1.2-0.8,1.7c0,0.5-0.2,0.6-0.2,1.2h0.7c0.2,0,0.7-0.5,0.7-0.5
		c0.1-0.1,0.1,0,0.2-0.1c0.2-0.2,0.4-0.6,0.7-0.6c0.1-0.2,0.3-0.5,0.4-0.7c0.2-0.2,0.3-0.5,0.5-0.6c0.1-0.3,0.2-0.3,0.2-0.6
		c-0.2,0.2-0.7,0.3-1,0.3c-0.1-0.1-0.3-0.1-0.5-0.1c-0.2-0.2-0.3-0.4-0.6-0.5C47.8,52,47.7,52,47.7,52.2z M49.6,50.1
		c-0.1,0.3-0.3,0.4-0.5,0.4c0,0.2-0.4,0.5-0.2,0.7c0-0.2,0.1,0,0.1,0.2c0.4,0,1-0.1,1.3-0.3c0-0.4,0.1-1-0.1-1.3
		c-0.1,0-0.4-0.1-0.5-0.1C49.6,49.9,49.5,49.9,49.6,50.1z"/>
	<path d="M63.9,55.1c-0.7,0.3-0.8,0.7-1.5,1c-0.6,0.2-1.5,0.8-2.2,0.3c-0.4-0.5-0.1-1.6-0.1-2.3c0.2,0,0.1-0.4,0.2-0.4
		c0-0.2-0.1-0.5,0.1-0.4c0-0.5,0.1-0.7,0.2-0.9c0.1-0.2,0.2-0.6,0.3-0.8c0.1-0.3,0.3-0.5,0.3-0.9c-0.4,0-0.6,0.5-0.9,0.9
		c-0.6,0.7-1,1.6-1.6,2.4c-0.2,0.3-0.4,0.5-0.6,0.7c-0.3,0.7-0.6,1.2-0.9,1.8c-0.4-0.1-0.4,0.3-0.8,0.2c0-0.3-0.3-0.5,0-0.7
		c0-0.3,0-0.6,0.2-0.7c0.2-0.5,0.4-0.9,0.5-1.5c0.3-0.3,0.3-1,0.6-1.4c0.1-0.6,0.2-1.1,0.3-1.7c-0.3-0.2-0.7,0.3-0.9,0.5
		c-0.3,0.2-0.5,0.5-0.7,0.9c-0.3,0.2-0.5,0.6-0.7,0.9c-0.4,0.1-0.4,0.7-0.8,0.7c-0.3,0.5-0.6,1.1-1,1.5c0,0.2-0.2,0.3-0.2,0.4
		c-0.1,0.1-0.1,0.4-0.2,0.4c-0.1,0.4-0.3,0.5-0.4,0.8c-0.4-0.1-0.7,0.3-1-0.1c0-0.1,0-0.2,0-0.3c0-0.2,0-0.3,0.2-0.4
		c0.3-0.5,0.5-1.6,0.8-2.3c0.1-0.5,0.4-0.9,0.5-1.5c0.1-0.2,0.2-0.5,0.2-0.7c0.1-0.6,0.2-0.9,0.4-1.9c0.1-0.5-0.3-0.1-0.2-0.5
		c-0.1-0.5,0.3-0.4,0.3-0.8c0.3,0,0.2-0.5,0.4-0.7c0-0.1,0.1-0.1,0.1-0.2h0.2c0.7,0.4,0.3,2.2-0.1,2.8c0,0.2-0.1,0.5-0.1,0.7
		c-0.1,0.4-0.1,0.4-0.2,0.7c0,0.3-0.2,0.6-0.2,1.1c0,0.3,0.2-0.2,0.4-0.1c0.1-0.2,0.3-0.2,0.3-0.4c0.3-0.1,0.5-0.4,0.7-0.7
		c0.3-0.2,0.5-0.4,0.7-0.6c0.2-0.3,0.5-0.4,0.7-0.7c0.7-0.1,0.9-0.8,1.6-0.9c0.5,0.7,0.2,2,0.1,3c0,0.2,0.2-0.1,0.3-0.1
		c0-0.2,0.1-0.3,0.2-0.3c0.1-0.3,0.3-0.4,0.5-0.6c0.3-0.5,0.7-0.7,1-1.3c0.6-0.2,0.9-0.9,1.4-1.2c0.6,0.4,0.3,1.8,0,2.3
		c-0.2,1.1-0.7,1.8-1,2.8c-0.1,0.5-0.3,0.9-0.3,1.7c0.6,0.4,0.9-0.4,1.5-0.4c0.1-0.1,0.1-0.2,0.2-0.2c0.1-0.1,0.2-0.1,0.4-0.2
		c0.3-0.2,0.3-0.2,0.7-0.4c0.4-0.3,0.3-0.6,0.7-0.8c0.4-0.5,1.6-2.5,1.4-0.2C65.2,53.5,64.4,54.9,63.9,55.1z"/>
	<path d="M76.1,55.1c-0.7,0.3-0.8,0.7-1.5,1c-0.6,0.2-1.5,0.8-2.2,0.3c-0.4-0.5-0.1-1.6-0.1-2.3c0.2,0,0.1-0.4,0.2-0.4
		c0-0.2-0.1-0.5,0.1-0.4c0-0.5,0.1-0.7,0.2-0.9c0.1-0.2,0.2-0.6,0.3-0.8c0.1-0.3,0.3-0.5,0.3-0.9c-0.4,0-0.6,0.5-0.9,0.9
		c-0.6,0.7-1,1.6-1.6,2.4c-0.2,0.3-0.4,0.5-0.6,0.7c-0.3,0.7-0.6,1.2-0.9,1.8c-0.4-0.1-0.4,0.3-0.8,0.2c0-0.3-0.3-0.5,0-0.7
		c0-0.3,0-0.6,0.2-0.7c0.2-0.5,0.4-0.9,0.5-1.5c0.3-0.3,0.3-1,0.6-1.4c0.1-0.6,0.2-1.1,0.3-1.7c-0.3-0.2-0.7,0.3-0.9,0.5
		c-0.3,0.2-0.5,0.5-0.7,0.9c-0.3,0.2-0.5,0.6-0.7,0.9c-0.4,0.1-0.4,0.7-0.8,0.7c-0.3,0.5-0.6,1.1-1,1.5c0,0.2-0.2,0.3-0.2,0.4
		c-0.1,0.1-0.1,0.4-0.2,0.4c-0.1,0.4-0.3,0.5-0.4,0.8c-0.4-0.1-0.7,0.3-1-0.1c0-0.1,0-0.2,0-0.3c0-0.2,0-0.3,0.2-0.4
		c0.3-0.5,0.5-1.6,0.8-2.3c0.1-0.5,0.4-0.9,0.5-1.5c0.1-0.2,0.2-0.5,0.2-0.7c0.1-0.6,0.2-0.9,0.4-1.9c0.1-0.5-0.3-0.1-0.2-0.5
		c-0.1-0.5,0.3-0.4,0.3-0.8c0.3,0,0.2-0.5,0.4-0.7c0-0.1,0.1-0.1,0.1-0.2H67c0.7,0.4,0.3,2.2-0.1,2.8c0,0.2-0.1,0.5-0.1,0.7
		c-0.1,0.4-0.1,0.4-0.2,0.7c0,0.3-0.2,0.6-0.2,1.1c0,0.3,0.2-0.2,0.4-0.1c0.1-0.2,0.3-0.2,0.3-0.4c0.3-0.1,0.5-0.4,0.7-0.7
		c0.3-0.2,0.5-0.4,0.7-0.6c0.2-0.3,0.5-0.4,0.7-0.7c0.7-0.1,0.9-0.8,1.6-0.9c0.5,0.7,0.2,2,0.1,3c0,0.2,0.2-0.1,0.3-0.1
		c0-0.2,0.1-0.3,0.2-0.3c0.1-0.3,0.3-0.4,0.5-0.6c0.3-0.5,0.7-0.7,1-1.3c0.6-0.2,0.9-0.9,1.4-1.2c0.6,0.4,0.3,1.8,0,2.3
		c-0.2,1.1-0.7,1.8-1,2.8c-0.1,0.5-0.3,0.9-0.3,1.7c0.6,0.4,0.9-0.4,1.5-0.4c0.1-0.1,0.1-0.2,0.2-0.2c0.1-0.1,0.2-0.1,0.4-0.2
		c0.3-0.2,0.3-0.2,0.7-0.4c0.4-0.3,0.3-0.6,0.7-0.8c0.4-0.5,1.6-2.5,1.4-0.2C77.4,53.5,76.6,54.9,76.1,55.1z"/>
	<path d="M85.2,53.1c0,0,0.3,0.9,0.3,0.9s-1,0.9-1,0.9c0,0-1,1.1-1.7,1.3c-0.2,0-0.4,0.1-0.6,0.2c-0.3,0-0.7-0.2-1-0.2
		c-0.2-0.2-0.3-0.5-0.4-0.8c-0.4,0.2-0.7,0.5-0.9,0.8c-0.5,0.2-1.1,0.7-1.7,0.9c-0.1,0-0.3,0-0.4,0c-0.2,0-0.5,0.1-0.8-0.1
		c-0.3-0.1-0.3-0.7-0.5-1.1c0.1-0.4,0.1-0.9,0.2-1.3c0.2-0.3,1.5-3.3,1.7-3.5c0-0.3,0.7-1.3,0.8-1.5c0.1-0.2,0.1-0.5,0.3-0.4
		c0.3-0.1,0.4,0.2,0.6,0.3c0.1,1-0.4,1.3-0.7,1.8c0,0.4-0.3,0.7-0.5,0.9c-0.1,0.3-0.8,1.8-1,1.9c-0.1,0.7-0.6,0.8-0.5,1.7
		c0.7,0.4,1.3-0.4,2-0.5c0.3-0.3,0.7-0.5,1-0.8c0.3-0.3,0.6-0.7,0.9-0.9c0.3-0.8,1.2-2.1,1.6-2.8c0.1-0.2,0.2-0.5,0.4-0.6
		c0-0.3,0.2-0.4,0.3-0.5c0.2-0.1,0.3-0.3,0.4-0.5c0.1-0.1,0.3-0.4,0.4-0.1c0.3,0,0.2,0.8,0.1,1.1c0,0-0.1,0-0.1,0.1
		c0,0.2-0.1,0.2-0.1,0.4c-0.4,0.6-0.7,1.2-1.1,1.8s-1.4,1.7-1.5,2.6c0.3,0.2,0.6,0.3,0.8,0.2c0.7-0.2,1.5-0.9,2-1.5
		C84.7,53.5,85.2,53.1,85.2,53.1z"/>
	<path d="M92.4,54.5c-0.3,0.1-0.3,0.3-0.7,0.6c-0.3,0.3-0.4,0.2-0.7,0.6c-0.6,0.6-1.3,0.6-1.9,1.2c-0.4,0-1,0.3-1.3-0.2
		c0-0.5,0.1-0.9,0.2-1.3c0,0,0-0.2,0-0.2c0.1-0.1,0-0.2,0.1-0.3c0-0.1,0.1,0,0.1-0.1c0.1-0.2,0.1-0.3,0.2-0.4c0-0.1,0.2-0.2,0.2-0.3
		c0,0,0-0.2,0-0.2c0.1-0.1,0.1-0.1,0.2-0.2c0.2-0.3,0.6-1.6,0.8-2.1c-0.6,0.3-1.9,1.7-2.4,2.3c-0.1,0.2-0.4,0.4-0.5,0.7
		c-0.3,0.3-0.4,0.9-0.8,1.2c-0.2,0-0.2,0.5-0.4,0.5c-0.2,0.2-0.3,0.4-0.4,0.5c-0.4-0.1-0.5,0.3-0.7-0.1c0-0.5,0.2-0.7,0.3-1.1
		c0.2-0.2,0.3-0.5,0.4-0.8c0.2-0.6,0.9-1.9,1-2.6c0.1-0.4,0.3-2.2,0.4-2.5c0.1-0.4,0.3-0.3,0.6-0.2c0.3,0.4,0,2.3-0.2,2.7
		c0.1,0.1,0,0.1,0,0.2H87c0,0.3,0.1-0.2,0.2-0.1c0.1,0,0-0.3,0.2-0.2c0.1-0.3,0.3-0.4,0.4-0.6c0.2,0.1,0.2-0.1,0.4-0.2
		c0.2-0.2,0.4-0.3,0.6-0.5c0.1-0.1,0.2-0.2,0.2-0.3c0.3-0.4,0.9-0.6,1.2-1.1c0.3-0.2,0.9-0.6,1.2-0.3c0.2,0.7-0.1,1.3-0.4,1.6
		c0,0.4-0.3,0.3-0.3,0.7c-0.2,0-0.2,0.5-0.4,0.5c-0.1,0.6-0.6,1.7-0.9,2.1c-0.1,0.3-0.2,0.5-0.3,0.7c-0.2,0-0.1,0.5-0.3,0.6
		c0.1,0.3,0.3-0.2,0.4-0.2c0.2-0.1,0.4,0.1,0.5-0.1c0.2,0,0.2-0.1,0.4-0.2c0.8-0.5,1-0.4,1.7-1.1c0.3-0.2,0.3-0.1,0.5-0.4
		c0.2-0.2,0.3-0.3,0.4-0.5c0.1-0.1,0.3-0.3,0.4-0.4c0.3-0.2,0.5-0.6,1-0.6c0.1,1-0.1,1.5-0.3,1.5c-0.1,0-0.4,0.1-0.4,0.2
		C93.3,53.8,92.7,54.2,92.4,54.5z"/>
	<path d="M96.6,55.3c0-0.2-0.5,0.2-0.5,0.3c-0.4,0.3-0.9,0.4-1.2,0.6c-0.1,0.2-0.2,0-0.4,0.1c0,0-0.2,0.2-0.2,0.2
		c-0.4,0.1-0.8,0-1.1,0.1c0-0.3-0.3-0.3-0.3-0.6c-0.1-0.4,0-0.8,0-1c0.1-0.4,0.5-1.3,0.8-1.6c0.5-0.6,1-1.9,1.5-2.4
		c0-0.2,0.2-0.3,0.4-0.4c0-0.3,0.2-0.3,0.3-0.5c0.1-0.1,0.2-0.3,0.4-0.4c0.1-0.1,0.1-0.4,0.4-0.3c0.3,0,0.2,0.5,0.4,0.6
		c-0.1,0.7-0.5,0.8-0.7,1.4c-0.4,0.2-0.5,0.9-0.7,1.2c-0.4,0.2-0.7,1.3-1.1,1.6c-0.2,0.5-0.6,0.6-0.7,1.3c0.3,0.3,0.8-0.1,1-0.3
		c0.5-0.1,1-0.4,1.4-0.7c0.4-0.3,0.8-0.6,1.2-0.9c0.3-0.2,0.3-0.5,0.6-0.7c0.3-0.1,0.6-0.5,1-0.6c0.2,0.7-0.1,1.3-0.8,1.8
		c-0.1,0.2-0.3,0.3-0.5,0.5C97.4,54.9,96.8,54.8,96.6,55.3z M99.7,42.9c0.2,0.4,0.2,1,0.2,1.6c-0.2,0.4-0.7,0.2-1,0
		C98.9,43.6,98.9,42.7,99.7,42.9z"/>
	<path d="M106.9,53.4c-0.1,0.5-0.9,1.3-1.3,1.4c-0.2,0.2-0.5,0.4-0.7,0.5c0,0-0.1,0.2-0.1,0.2c-0.2,0.1-0.4,0.1-0.4,0.4
		c-0.3-0.1-0.3,0.2-0.5,0.2c-0.2,0.2-0.6,0.3-0.8,0.6c-0.1,0.1-0.4-0.1-0.4,0.1c0,0.2-0.3,0-0.4,0.2c-0.5,0-0.9,0.1-1.3,0.3
		c-0.6,0-1.2,0-1.7-0.1c-0.2-0.2-0.4-0.5-0.7-0.6c0-0.3-0.1-0.6-0.3-0.7c0-0.7-0.1-0.6,0-1.4c0-0.4,0.3-1.1,0.3-1.5
		c0.4-0.6,0.7-1.5,1.2-2c0.8-1.2,1.9-2.5,3.5-2.1c0.3,0.7,0.5,1.7,0.7,2.6c-0.2,0,0,0.4-0.1,0.5c-0.2,0.3-0.6,0.9-1,0.3
		c0-0.2,0-0.4,0-0.5c0-0.4,0.3-0.6,0.3-1.2c0-0.2-0.1-0.4-0.1-0.6c-0.3-0.3-0.7-0.4-1.1-0.1c0.1,0.2,0.1,0.2-0.1,0.1
		c-0.2-0.1-0.1,0.2-0.2,0.2c0,0-0.2,0-0.2,0c-0.1,0.1-0.2,0.3-0.4,0.2c0,0.2-0.2,0.2-0.3,0.3c-0.1,0.1,0,0.5-0.3,0.3
		c0,0.4-0.2,0.5-0.3,0.6c-0.1,0.5-0.5,0.6-0.6,1.1c-0.2,0.1-0.3,0.3-0.4,0.4c-0.2,0.9-0.5,1-0.3,2c0.2,0.6,0.5,0.8,0.9,1.1
		c0.8-0.1,1.7,0,2.3-0.4c0.2-0.1,0.5-0.2,0.7-0.3c0.5-0.2,0.9-0.7,1.4-0.9c0.4-0.3,0.9-0.7,1.3-0.9c0.4-0.3,0.7-0.9,1.2-1.2
		C106.9,52.4,107.1,52.4,106.9,53.4z"/>
	<path d="M115.7,53.1c-0.3,0.2-0.5,0.7-0.8,0.9c-0.3,0.2-0.2,0.3-0.5,0.5c-0.3,0.2-0.5,0.5-0.7,0.7c-0.1,0.1-0.3,0.1-0.4,0.2
		c-0.2,0.1-0.2,0.2-0.4,0.2c-0.3,0.4-0.7,0.3-0.9,0.7c-0.5,0.1-0.9,0-1.4,0.2c0-0.2-0.3,0-0.4-0.1c0-0.3-0.3-0.2-0.3-0.4
		c-0.1,0,0-0.5-0.2-0.4c-0.2,0-0.3,0.3-0.4,0.3c-0.2,0.1-0.5,0.3-0.7,0.5c-0.1,0.1-0.5,0.2-0.7,0.4c-0.1,0.1-0.7,0.3-0.9,0.3
		c0,0-0.2-0.2-0.4-0.1c-0.3-0.5-0.5-1.2-0.4-2.1c0.2-0.3,0.3-0.7,0.4-1.2c0.2-0.3,0.4-0.7,0.6-1.1c0.4-0.7,0.9-1.2,1.2-1.8
		c0.3-0.2,0.5-0.5,0.7-0.9c0.4,0,0.5-0.4,0.7-0.6c0.3-0.2,0.7-0.3,0.8-0.6c0.7-0.1,1.1-0.6,1.7-0.7c0.5,0.2,0.8,0.9,0.6,1.8
		c-0.1,0.2-0.2,0.4-0.4,0.5c0,0.2-0.2,0.2-0.2,0.3c0,0.2-0.2,0.1-0.3,0.1c-0.3-0.6,0.2-0.8,0.2-1.3c-0.4-0.3-0.6,0.2-1.1,0.1
		c-0.2,0.2-0.5,0.3-0.7,0.4c-0.2,0.2-0.3,0.5-0.6,0.5c-0.4,0.4-0.7,0.9-1.2,1.2c-0.2,0.4-0.4,0.8-0.7,1.2c-0.2,0.1-0.2,0.4-0.4,0.5
		c-0.1,0.2-0.2,0.5-0.4,0.5c-0.1,0.7-0.4,1.1-0.4,1.9c0.4,0.4,0.8-0.2,1.2-0.2c0-0.2,0.1-0.1,0.2-0.2c0.1-0.1,0.1-0.1,0.2-0.2
		c0.1-0.1,0.5-0.1,0.4-0.4c0.2,0,0.3,0,0.4-0.1c0.2,0,0.1-0.4,0.4-0.3c0.1-0.4,0.3-0.7,0.3-1.2c0.2-0.2,0.4-0.4,0.4-0.8
		c0.6-0.3,0.6-1.4,1.5-1.3c0.2,0.1,0.2,0.5,0.3,0.6c0,0.7-0.3,0.7-0.4,1.3c-0.2,0.2-0.4,0.5-0.5,0.8c-0.2,0.1-0.3,0.3-0.4,0.5
		c-0.1,0.2-0.4,0.2-0.3,0.6c-0.1,0.4,0.3,0.1,0.4,0.3c0.1-0.1,0.3,0,0.4-0.1c0.2-0.1,0.4,0,0.7-0.2c0.2-0.2,0.5-0.3,0.7-0.4
		c0.4-0.3,0.9-0.5,1.3-0.8c0.2-0.3,0.4-0.5,0.6-0.6c0.3-0.2,0.6-0.5,0.9-0.8C115.4,52.4,115.6,53.2,115.7,53.1z"/>
	<path d="M120.8,55c-0.4,0.2-0.5,0.5-0.8,0.7c-0.2,0.1-0.4,0.4-0.7,0.5c0,0-0.3,0.2-0.3,0.2c-0.1,0-0.1,0.1-0.3,0.2
		c-0.1,0-0.4,0.2-0.5,0.2c-0.2,0.1,0-0.1-0.3,0c-0.2,0-0.3,0.1-0.4,0.2c-0.3-0.2-0.9-0.1-1.3-0.1c-0.1-0.2-0.3-0.2-0.5-0.3
		c-0.2-0.4-0.6-0.8-0.7-1.6c-0.1-0.6,0-1.1,0.2-1.7c0.2-0.5,0.3-1.5,0.5-1.8c0.4-0.9,0.6-1.9,1-2.6c-0.1-0.2-0.4-0.2-0.6-0.1
		c-0.2,0-0.5,0.2-0.9,0.2c-0.5,0.1-1.1,0.4-1.2-0.3c0-0.4,0.4-0.2,0.5-0.4c0.1-0.2,0.5-0.1,0.6-0.3c0.8-0.1,1.5-0.2,2.2-0.3
		c0.1,0,0.2-0.2,0.3-0.3c0-0.1,0-0.2,0.1-0.3c0.1-0.2,0.4-0.5,0.6-0.9c0.3-0.5,0.5-1.1,0.8-1.7c0.3-0.3,0.2-0.9,0.7-0.8
		c0.3,0,0.1,0.7,0.2,0.9c-0.4,1-1,1.7-1.2,2.9c0,0.2,0.4,0,0.5,0.1c1.7-0.2,3.5-0.3,5.2-0.5c0.2,0.1,0.4,0.3,0.3,0.6
		c-0.4,0-0.7,0.1-0.7,0.1c-0.4,0-0.7,0.2-1.2,0.1c-0.3,0.3-0.6,0.1-1,0.3c-0.3,0-0.5,0-0.7-0.1c-0.5,0.3-0.5,0-1,0.2
		c-0.2,0.1-0.2,0.1-0.4,0c-0.1,0.1-0.3,0.2-0.4,0.2c-0.2,0-0.5-0.4-0.8,0c0,0.2-0.3,0-0.4,0.1c-0.2,0.6-0.6,0.9-0.7,1.6
		c-0.4,0.4-0.3,1-0.7,1.4c0,0.3-0.2,0.4-0.3,0.6c-0.1,0.2-0.1,0.6-0.3,0.7c-0.1,0.8-0.3,1.5-0.1,2.3c0.2,0.2,0.3,0.4,0.4,0.4
		c0.1,0,0,0.1,0.1,0.1c0.5,0.3,1.2,0,1.7-0.1c0.2-0.1,0.6-0.2,0.8-0.5c0,0,0.4-0.3,0.4-0.3c0.1-0.1,0.2-0.2,0.3-0.3
		c0.1-0.1,0.3-0.1,0.4-0.1c0.1-0.2,0.3-0.2,0.6-0.2C121,54.5,120.7,54.7,120.8,55z"/>
	<path d="M123.6,55.3c0-0.2-0.5,0.2-0.5,0.3c-0.4,0.3-0.9,0.4-1.2,0.6c-0.1,0.2-0.2,0-0.4,0.1c0,0-0.2,0.2-0.2,0.2
		c-0.4,0.1-0.8,0-1.1,0.1c0-0.3-0.3-0.3-0.3-0.6c-0.1-0.4,0-0.8,0-1c0.1-0.4,0.5-1.3,0.8-1.6c0.5-0.6,1-1.9,1.5-2.4
		c0-0.2,0.2-0.3,0.4-0.4c0-0.3,0.2-0.3,0.3-0.5c0.1-0.1,0.2-0.3,0.4-0.4c0.1-0.1,0.1-0.4,0.4-0.3c0.3,0,0.2,0.5,0.4,0.6
		c-0.1,0.7-0.5,0.8-0.7,1.4c-0.4,0.2-0.5,0.9-0.7,1.2c-0.4,0.2-0.7,1.3-1.1,1.6c-0.2,0.5-0.6,0.6-0.7,1.3c0.3,0.3,0.8-0.1,1-0.3
		c0.5-0.1,1-0.4,1.4-0.7c0.4-0.3,0.8-0.6,1.2-0.9c0.3-0.2,0.3-0.5,0.6-0.7c0.3-0.1,0.6-0.5,1-0.6c0.2,0.7-0.1,1.3-0.8,1.8
		c-0.1,0.2-0.3,0.3-0.5,0.5C124.4,54.9,123.8,54.8,123.6,55.3z M126.7,42.9c0.2,0.4,0.2,1,0.2,1.6c-0.2,0.4-0.7,0.2-1,0
		C125.9,43.6,125.9,42.7,126.7,42.9z"/>
	<path d="M126.4,50.9c0.1,0,0.2-0.3,0.4-0.4c0.4-0.1,0.6-0.6,1-0.7c0.2-0.3,0.4-0.7,0.6-1c0.4-0.1,0.7-0.4,1.2-0.4
		c0.2,0.3,0.8,0.6,0.7,1.2c0.1,0.4,0.1,0.8,0.2,1.1c0,0,0.1,0.1,0.2,0c0.2-0.1,0,0,0.2-0.1c0.3-0.2,0.6-0.1,0.6,0
		c0,0.2-0.3,0.8-0.4,0.9c0,0-0.1,0-0.2,0.1c-0.2,0.1-0.1,0-0.3,0.2c-0.2,0.1-0.3,0.2-0.3,0.2c-0.2,0.9-0.6,1.3-0.9,1.9
		c-0.1,0.1-0.5,0.4-0.4,0.6c-0.2,0-0.1,0.2-0.3,0.5c-0.5,0.6-1.1,1.1-1.7,1.6c-0.5,0.2-1.2,0-1.6-0.1c-0.2-0.5-0.2-1.3-0.2-2
		c0.1-0.2,0.1-0.5,0.2-0.7c0-0.1,0.2-0.1,0.2-0.2c0.1-0.1,0-0.3,0.1-0.4c0.2-0.5,0.2-1,0.5-1.3C126.3,51.6,126.3,51.2,126.4,50.9z
		 M127.2,52.2c-0.2,0-0.2,0.3-0.3,0.4c-0.3,0.6-0.5,1.2-0.8,1.7c0,0.5-0.2,0.6-0.2,1.2h0.7c0.2,0,0.7-0.5,0.7-0.5
		c0.1-0.1,0.1,0,0.2-0.1c0.2-0.2,0.4-0.6,0.7-0.6c0.1-0.2,0.3-0.5,0.4-0.7c0.2-0.2,0.3-0.5,0.5-0.6c0.1-0.3,0.2-0.3,0.2-0.6
		c-0.2,0.2-0.7,0.3-1,0.3c-0.1-0.1-0.3-0.1-0.5-0.1c-0.2-0.2-0.3-0.4-0.6-0.5C127.2,52,127.1,52,127.2,52.2z M129,50.1
		c-0.1,0.3-0.3,0.4-0.5,0.4c0,0.2-0.4,0.5-0.2,0.7c0-0.2,0.1,0,0.1,0.2c0.4,0,1-0.1,1.3-0.3c0-0.4,0.1-1-0.1-1.3
		c-0.1,0-0.4-0.1-0.5-0.1C129,49.9,128.9,49.9,129,50.1z"/>
	<path d="M139.3,54.5c-0.3,0.1-0.3,0.3-0.7,0.6c-0.3,0.3-0.4,0.2-0.7,0.6c-0.6,0.6-1.3,0.6-1.9,1.2c-0.4,0-1,0.3-1.3-0.2
		c0-0.5,0.1-0.9,0.2-1.3c0,0,0-0.2,0-0.2c0.1-0.1,0-0.2,0.1-0.3c0-0.1,0.1,0,0.1-0.1c0.1-0.2,0.1-0.3,0.2-0.4c0-0.1,0.2-0.2,0.2-0.3
		c0,0,0-0.2,0-0.2c0.1-0.1,0.1-0.1,0.2-0.2c0.2-0.3,0.6-1.6,0.8-2.1c-0.6,0.3-1.9,1.7-2.4,2.3c-0.1,0.2-0.4,0.4-0.5,0.7
		c-0.3,0.3-0.4,0.9-0.8,1.2c-0.2,0-0.2,0.5-0.4,0.5c-0.2,0.2-0.3,0.4-0.4,0.5c-0.4-0.1-0.5,0.3-0.7-0.1c0-0.5,0.2-0.7,0.3-1.1
		c0.2-0.2,0.3-0.5,0.4-0.8c0.2-0.6,0.9-1.9,1-2.6c0.1-0.4,0.3-2.2,0.4-2.5c0.1-0.4,0.3-0.3,0.6-0.2c0.3,0.4,0,2.3-0.2,2.7
		c0.1,0.1,0,0.1,0,0.2h-0.1c0,0.3,0.1-0.2,0.2-0.1c0.1,0,0-0.3,0.2-0.2c0.1-0.3,0.3-0.4,0.4-0.6c0.2,0.1,0.2-0.1,0.4-0.2
		c0.2-0.2,0.4-0.3,0.6-0.5c0.1-0.1,0.2-0.2,0.2-0.3c0.3-0.4,0.9-0.6,1.2-1.1c0.3-0.2,0.9-0.6,1.2-0.3c0.2,0.7-0.1,1.3-0.4,1.6
		c0,0.4-0.3,0.3-0.3,0.7c-0.2,0-0.2,0.5-0.4,0.5c-0.1,0.6-0.6,1.7-0.9,2.1c-0.1,0.3-0.2,0.5-0.3,0.7c-0.2,0-0.1,0.5-0.3,0.6
		c0.1,0.3,0.3-0.2,0.4-0.2c0.2-0.1,0.4,0.1,0.5-0.1c0.2,0,0.2-0.1,0.4-0.2c0.8-0.5,1-0.4,1.7-1.1c0.3-0.2,0.3-0.1,0.5-0.4
		c0.2-0.2,0.3-0.3,0.4-0.5c0.1-0.1,0.3-0.3,0.4-0.4c0.3-0.2,0.5-0.6,1-0.6c0.1,1-0.1,1.5-0.3,1.5c-0.1,0-0.4,0.1-0.4,0.2
		C140.2,53.8,139.6,54.2,139.3,54.5z"/>
	<path d="M156.7,55.7c0-0.2-0.3,0.3-0.4,0.3c-0.1,0.2-0.4,0.2-0.4,0.4c-1.4,1.3-4,1.8-5.9,0.9c-0.5-0.2-0.9-0.6-1.4-0.6
		c-0.3-0.4-0.6-0.6-0.9-0.8c-0.1-0.3-0.3-0.5-0.4-0.7c-0.2-0.5-0.3-1.1-0.2-1.9c0.2-0.4,0.6-0.7,1-0.9c0.2,0.2,0.6,0,0.8,0.2
		c0.3,0,0.6,0,0.6,0.4c-0.1,0.5-0.3,0.3-0.6,0.2c-0.2-0.1-0.5-0.3-0.7-0.2c-0.2-0.1-0.1,0.4-0.3,0.4c-0.1,0.2-0.2,0.2-0.2,0.5
		c0.1,1,0.8,1.3,1.2,1.8c0.4,0,0.7,0.3,1,0.4c0.2,0.2,0.3,0.1,0.5,0.2c0,0,0,0.1,0.1,0.1c0.3,0.1,0.8,0.2,1.2,0.2c0.1,0,0.2,0,0.4,0
		c0.3-0.1,0.7,0,1.2,0c0.3-0.1,0.6-0.3,1-0.3c0.6-0.5,1.3-0.9,1.8-1.5c0.2-0.3,0.3-0.6,0.6-0.8c0-0.4,0.1-0.6,0.2-0.7
		c0.1-0.8,0.1-1.7-0.1-2.4c-0.2-0.3-0.3-0.7-0.5-1.1c-0.1-0.4-0.4-0.6-0.5-1.1c-0.4-0.2-0.7-0.6-0.9-1.1c-0.2,0-0.3,0-0.4-0.1
		c-0.1-0.2-0.3-0.4-0.4-0.7h-0.5c-0.2-0.4-0.6-0.4-0.7-0.7c-0.3,0.1-0.4-0.1-0.6-0.2c-0.3-0.2-0.6-0.3-0.9-0.5
		c-0.2-0.1-0.3-0.1-0.5-0.2c0,0-0.2-0.2-0.2-0.2c-0.2-0.1-0.5-0.2-0.8-0.3c0,0-0.2-0.2-0.2-0.2c-0.2-0.1-0.3,0-0.4-0.1
		c-0.1,0-0.2-0.1-0.3-0.2c-0.1-0.5,0.1-0.7,0.1-1.1c0.8-0.2,1.4-0.6,2.3-0.7c0.6-0.5,1.6-0.3,2.3-0.7c0.7-0.1,1.4-0.2,1.9-0.4
		c0.4,0.1,0.8-0.1,1.2-0.1c0.2,0,0.3,0.1,0.4,0.1c0.3,0,0.7-0.1,1-0.1c0.2,0,0.4,0,0.7,0.1c0.2,0,0.4,0.1,0.6,0.1
		c0,0,0.1,0.2,0.2,0.2c0.1,0,0.2,0,0.2,0c0.2,0.1,0.3,0.6,0.5,0.8c0,0.3,0.1,0.4,0.1,0.7c0,0.2-0.1,0.3-0.1,0.6
		c-0.2,0-0.2,0.3-0.3,0.4c-0.1,0.1-0.2,0-0.2,0.1c0,0-0.1,0.1-0.1,0.2c-0.2,0.2-0.4,0.4-0.7,0.6c-0.1,0.2-0.5,0.2-0.5-0.1
		c0-0.4,0.1-0.4,0.3-0.4c0.1-0.1,0.1-0.4,0.3-0.4c0.1-0.2,0.2-0.3,0.4-0.3c0-0.3,0.2-0.3,0.2-0.5c-0.2-0.8-0.9-0.8-1.4-1.3
		c-0.2-0.1-0.1,0.2-0.2,0.2c0-0.1-0.2-0.1-0.3-0.1c-0.9-0.2-2.2,0.1-3.2,0.3c-0.8,0.2-1.6,0.4-2.4,0.5c-0.5,0.2-1,0.5-1.6,0.6
		c0,0.3,0.2,0.2,0.4,0.3c0.1,0.1,0.5,0.2,0.7,0.3c0.4,0.4,1,0.6,1.5,0.9c0.5,0.3,0.9,0.7,1.5,0.8c0.1,0.3,0.3,0.4,0.5,0.5
		c0,0,0,0.2,0.1,0.2c0.1,0,0.2,0,0.2,0c0,0,0,0.2,0.1,0.2c0.3,0.2,0.7,0.6,1,1.1c0.2,0.2,0.3,0.6,0.7,0.6c0,0.7,0.5,0.6,0.4,1.4
		c0,0.1,0.1,0.2,0.2,0.2c0,0.2,0.1,0.3,0.2,0.3c0,0.7,0.2,1.5,0.1,2.3c0,0.4-0.2,0.9-0.3,1.4C157.4,54.9,157.1,55.2,156.7,55.7z"/>
	<path d="M168,53.4c-0.1,0.5-0.9,1.3-1.3,1.4c-0.2,0.2-0.5,0.4-0.7,0.5c0,0-0.1,0.2-0.1,0.2c-0.2,0.1-0.4,0.1-0.4,0.4
		c-0.3-0.1-0.3,0.2-0.5,0.2c-0.2,0.2-0.6,0.3-0.8,0.6c-0.1,0.1-0.4-0.1-0.4,0.1c0,0.2-0.3,0-0.4,0.2c-0.5,0-0.9,0.1-1.3,0.3
		c-0.6,0-1.2,0-1.7-0.1c-0.2-0.2-0.4-0.5-0.7-0.6c0-0.3-0.1-0.6-0.3-0.7c0-0.7-0.1-0.6,0-1.4c0-0.4,0.3-1.1,0.3-1.5
		c0.4-0.6,0.7-1.5,1.2-2c0.8-1.2,1.9-2.5,3.5-2.1c0.3,0.7,0.5,1.7,0.7,2.6c-0.2,0,0,0.4-0.1,0.5c-0.2,0.3-0.6,0.9-1,0.3
		c0-0.2,0-0.4,0-0.5c0-0.4,0.3-0.6,0.3-1.2c0-0.2-0.1-0.4-0.1-0.6c-0.3-0.3-0.7-0.4-1.1-0.1c0.1,0.2,0.1,0.2-0.1,0.1
		c-0.2-0.1-0.1,0.2-0.2,0.2c0,0-0.2,0-0.2,0c-0.1,0.1-0.2,0.3-0.4,0.2c0,0.2-0.2,0.2-0.3,0.3c-0.1,0.1,0,0.5-0.3,0.3
		c0,0.4-0.2,0.5-0.3,0.6c-0.1,0.5-0.5,0.6-0.6,1.1c-0.2,0.1-0.3,0.3-0.4,0.4c-0.2,0.9-0.5,1-0.3,2c0.2,0.6,0.5,0.8,0.9,1.1
		c0.8-0.1,1.7,0,2.3-0.4c0.2-0.1,0.5-0.2,0.7-0.3c0.5-0.2,0.9-0.7,1.4-0.9c0.4-0.3,0.9-0.7,1.3-0.9c0.4-0.3,0.7-0.9,1.2-1.2
		C167.9,52.4,168.2,52.4,168,53.4z"/>
	<path d="M170.4,55.3c0-0.2-0.5,0.2-0.5,0.3c-0.4,0.3-0.9,0.4-1.2,0.6c-0.1,0.2-0.2,0-0.4,0.1c0,0-0.2,0.2-0.2,0.2
		c-0.4,0.1-0.8,0-1.1,0.1c0-0.3-0.3-0.3-0.3-0.6c-0.1-0.4,0-0.8,0-1c0.1-0.4,0.5-1.3,0.8-1.6c0.5-0.6,1-1.9,1.5-2.4
		c0-0.2,0.2-0.3,0.4-0.4c0-0.3,0.2-0.3,0.3-0.5c0.1-0.1,0.2-0.3,0.4-0.4c0.1-0.1,0.1-0.4,0.4-0.3c0.3,0,0.2,0.5,0.4,0.6
		c-0.1,0.7-0.5,0.8-0.7,1.4c-0.4,0.2-0.5,0.9-0.7,1.2c-0.4,0.2-0.7,1.3-1.1,1.6c-0.2,0.5-0.6,0.6-0.7,1.3c0.3,0.3,0.8-0.1,1-0.3
		c0.5-0.1,1-0.4,1.4-0.7c0.4-0.3,0.8-0.6,1.2-0.9c0.3-0.2,0.3-0.5,0.6-0.7c0.3-0.1,0.6-0.5,1-0.6c0.2,0.7-0.1,1.3-0.8,1.8
		c-0.1,0.2-0.3,0.3-0.5,0.5C171.3,54.9,170.6,54.8,170.4,55.3z M173.5,42.9c0.2,0.4,0.2,1,0.2,1.6c-0.2,0.4-0.7,0.2-1,0
		C172.8,43.6,172.8,42.7,173.5,42.9z"/>
	<path d="M178.5,54.3c-0.2,0.5-2.2,2.3-3.4,2.4c-1,0.1-1.8-0.2-2.4-0.8c-0.3-0.1-0.5-0.7-0.4-1.1c-0.1-0.4-0.2-1-0.1-1.5
		c0,0,0.1,0,0.1-0.1c0-0.2,0.3-1.3,0.5-1.4c0.1-0.3,0.2-0.6,0.4-0.7c0.2-0.6,0.6-0.9,0.8-1.4c0.4-0.3,0.8-0.5,1.1-1
		c0.5,0.1,0.7-0.3,1.2-0.3c0.2,0.2,0.2,0.5,0.2,0.9c0,0.2,0,0.1-0.1,0.2c-0.1,0.2,0,0.5-0.2,0.7c0,0.9-0.6,1.8-0.6,2.6
		c-0.2,0.2-0.4,0.6-0.5,0.9s-0.3,0.3-0.4,0.6c-0.3,0.2-0.5,0.6-0.9,0.7c0.2,0.3,0.6,0.4,0.8,0.5h0.2c0.8-0.1,2-0.8,2.6-1.5
		c0.1-0.2,0.4-0.4,0.6-0.5c0.1-0.1,0.4-0.3,0.6-0.3C178.6,53.4,178.6,54.1,178.5,54.3z M175.1,49.9c-0.4,0.4-0.7,1-1.1,1.3
		c-0.3,0.7-1,2-1,3.1c0.2,0,0.5-0.2,0.6-0.2c0.2-0.2,0.3-0.2,0.4-0.4c0.5-0.5,1-2,1.3-2.7c0.1-0.3,0.3-0.6,0.3-1.1
		c0-0.1,0-0.2-0.1-0.2C175.4,49.9,175.2,49.8,175.1,49.9z"/>
	<path d="M185.9,54.5c-0.3,0.1-0.3,0.3-0.7,0.6c-0.3,0.3-0.4,0.2-0.7,0.6c-0.6,0.6-1.3,0.6-1.9,1.2c-0.4,0-1,0.3-1.3-0.2
		c0-0.5,0.1-0.9,0.2-1.3c0,0,0-0.2,0-0.2c0.1-0.1,0-0.2,0.1-0.3c0-0.1,0.1,0,0.1-0.1c0.1-0.2,0.1-0.3,0.2-0.4c0-0.1,0.2-0.2,0.2-0.3
		c0,0,0-0.2,0-0.2c0.1-0.1,0.1-0.1,0.2-0.2c0.2-0.3,0.6-1.6,0.8-2.1c-0.6,0.3-1.9,1.7-2.4,2.3c-0.1,0.2-0.4,0.4-0.5,0.7
		c-0.3,0.3-0.4,0.9-0.8,1.2c-0.2,0-0.2,0.5-0.4,0.5c-0.2,0.2-0.3,0.4-0.4,0.5c-0.4-0.1-0.5,0.3-0.7-0.1c0-0.5,0.2-0.7,0.3-1.1
		c0.2-0.2,0.3-0.5,0.4-0.8c0.2-0.6,0.9-1.9,1-2.6c0.1-0.4,0.3-2.2,0.4-2.5c0.1-0.4,0.3-0.3,0.6-0.2c0.3,0.4,0,2.3-0.2,2.7
		c0.1,0.1,0,0.1,0,0.2h-0.1c0,0.3,0.1-0.2,0.2-0.1c0.1,0,0-0.3,0.2-0.2c0.1-0.3,0.3-0.4,0.4-0.6c0.2,0.1,0.2-0.1,0.4-0.2
		c0.2-0.2,0.4-0.3,0.6-0.5c0.1-0.1,0.2-0.2,0.2-0.3c0.3-0.4,0.9-0.6,1.2-1.1c0.3-0.2,0.9-0.6,1.2-0.3c0.2,0.7-0.1,1.3-0.4,1.6
		c0,0.4-0.3,0.3-0.3,0.7c-0.2,0-0.2,0.5-0.4,0.5c-0.1,0.6-0.6,1.7-0.9,2.1c-0.1,0.3-0.2,0.5-0.3,0.7c-0.2,0-0.1,0.5-0.3,0.6
		c0.1,0.3,0.3-0.2,0.4-0.2c0.2-0.1,0.4,0.1,0.5-0.1c0.2,0,0.2-0.1,0.4-0.2c0.8-0.5,1-0.4,1.7-1.1c0.3-0.2,0.3-0.1,0.5-0.4
		c0.2-0.2,0.3-0.3,0.4-0.5c0.1-0.1,0.3-0.3,0.4-0.4c0.3-0.2,0.5-0.6,1-0.6c0.1,1-0.1,1.5-0.3,1.5c-0.1,0-0.4,0.1-0.4,0.2
		C186.8,53.8,186.2,54.2,185.9,54.5z"/>
	<path d="M195.7,53.4c-0.1,0.5-0.9,1.3-1.3,1.4c-0.2,0.2-0.5,0.4-0.7,0.5c0,0-0.1,0.2-0.1,0.2c-0.2,0.1-0.4,0.1-0.4,0.4
		c-0.3-0.1-0.3,0.2-0.5,0.2c-0.2,0.2-0.6,0.3-0.8,0.6c-0.1,0.1-0.4-0.1-0.4,0.1c0,0.2-0.3,0-0.4,0.2c-0.5,0-0.9,0.1-1.3,0.3
		c-0.6,0-1.2,0-1.7-0.1c-0.2-0.2-0.4-0.5-0.7-0.6c0-0.3-0.1-0.6-0.3-0.7c0-0.7-0.1-0.6,0-1.4c0-0.4,0.3-1.1,0.3-1.5
		c0.4-0.6,0.7-1.5,1.2-2c0.8-1.2,1.9-2.5,3.5-2.1c0.3,0.7,0.5,1.7,0.7,2.6c-0.2,0,0,0.4-0.1,0.5c-0.2,0.3-0.6,0.9-1,0.3
		c0-0.2,0-0.4,0-0.5c0-0.4,0.3-0.6,0.3-1.2c0-0.2-0.1-0.4-0.1-0.6c-0.3-0.3-0.7-0.4-1.1-0.1c0.1,0.2,0.1,0.2-0.1,0.1
		c-0.2-0.1-0.1,0.2-0.2,0.2c0,0-0.2,0-0.2,0c-0.1,0.1-0.2,0.3-0.4,0.2c0,0.2-0.2,0.2-0.3,0.3c-0.1,0.1,0,0.5-0.3,0.3
		c0,0.4-0.2,0.5-0.3,0.6c-0.1,0.5-0.5,0.6-0.6,1.1c-0.2,0.1-0.3,0.3-0.4,0.4c-0.2,0.9-0.5,1-0.3,2c0.2,0.6,0.5,0.8,0.9,1.1
		c0.8-0.1,1.7,0,2.3-0.4c0.2-0.1,0.5-0.2,0.7-0.3c0.5-0.2,0.9-0.7,1.4-0.9c0.4-0.3,0.9-0.7,1.3-0.9c0.4-0.3,0.7-0.9,1.2-1.2
		C195.7,52.4,195.9,52.4,195.7,53.4z"/>
	<path d="M201.6,54.3c-0.2,0.5-2.2,2.3-3.4,2.4c-1,0.1-1.8-0.2-2.4-0.8c-0.3-0.1-0.5-0.7-0.4-1.1c-0.1-0.4-0.2-1-0.1-1.5
		c0,0,0.1,0,0.1-0.1c0-0.2,0.3-1.3,0.5-1.4c0.1-0.3,0.2-0.6,0.4-0.7c0.2-0.6,0.6-0.9,0.8-1.4c0.4-0.3,0.8-0.5,1.1-1
		c0.5,0.1,0.7-0.3,1.2-0.3c0.2,0.2,0.2,0.5,0.2,0.9c0,0.2,0,0.1-0.1,0.2c-0.1,0.2,0,0.5-0.2,0.7c0,0.9-0.6,1.8-0.6,2.6
		c-0.2,0.2-0.4,0.6-0.5,0.9s-0.3,0.3-0.4,0.6c-0.3,0.2-0.5,0.6-0.9,0.7c0.2,0.3,0.6,0.4,0.8,0.5h0.2c0.8-0.1,2-0.8,2.6-1.5
		c0.1-0.2,0.4-0.4,0.6-0.5c0.1-0.1,0.4-0.3,0.6-0.3C201.6,53.4,201.6,54.1,201.6,54.3z M198.1,49.9c-0.4,0.4-0.7,1-1.1,1.3
		c-0.3,0.7-1,2-1,3.1c0.2,0,0.5-0.2,0.6-0.2c0.2-0.2,0.3-0.2,0.4-0.4c0.5-0.5,1-2,1.3-2.7c0.1-0.3,0.3-0.6,0.3-1.1
		c0-0.1,0-0.2-0.1-0.2C198.4,49.9,198.2,49.8,198.1,49.9z"/>
	<path d="M200.5,55.3c0-0.4,0-1,0-1c0.6-0.2,1.3-1.3,1.8-1.7c0.6-0.6,1.5-1.7,2.2-2.2c0.4-0.3,0.7-0.7,1-1c0.3-0.3,0.6-0.7,1-0.7
		c0.1,0.2,0.2,0.4,0.3,0.5c0.1,0.4-0.1,0.7-0.2,0.9c-0.2,0.4-0.3,0.8-0.5,1.2c0,0,0,0.2,0,0.2c-0.1,0.2-0.8,2-0.9,2.4
		c-0.2,0.3-0.4,0.5-0.5,0.9c0.2,0.3,0.4-0.2,0.7,0c0.6-0.2,1.3-0.5,2-0.7c0.7-0.5,1.5-1,2.2-1.5c0,0.5,0.1,1,0,0.9
		c-0.2,0.1-0.4,0.5-0.5,0.6c0,0-0.2,0.2-0.2,0.2c-0.1,0-0.1,0-0.2,0.1c-0.2,0.2-0.3,0.4-0.5,0.5c-0.1,0.1-0.2,0.1-0.2,0.1
		c-0.2,0.1-0.3,0.2-0.5,0.3c-0.2,0.1-0.2,0.1-0.4,0.2c-0.2,0.1-0.7,0.2-1,0.5c-0.8,0.1-1.7,0.7-2.6,0.6c-0.3,0-0.6-0.3-0.9-0.3
		c-0.2-0.3-0.4-0.6-0.7-0.7c-0.1-0.3-0.1-0.6,0-0.9c-0.2-0.1-0.2,0.2-0.4,0.2c0,0.2-0.3,0-0.3,0.2C200.7,55.2,200.5,55.4,200.5,55.3
		z M203.9,54.3c0.2-0.3,0.9-1.5,1-2.1c0.2-0.1,0.3-0.9,0.4-1c0-0.2,0-0.4,0.2-0.4c0-0.1,0-0.3-0.2-0.2c0,0.2-0.1,0.2-0.1,0.3
		c-0.5,0.2-0.6,1-1.2,1.2c-0.3,0.5-1.5,1.7-1.9,2.1c0.4,0.4,0.6,1,1.2,0.9C203.6,55,203.7,54.7,203.9,54.3z"/>
	<path d="M231.6,36.3c-0.1,0.6-0.5,0.5-0.7,0.9c-0.3,0.3-0.6,0.5-0.9,0.8c-0.1,0.1-0.1,0.2-0.2,0.3c-0.1,0.1-0.3,0.1-0.4,0.2
		c-0.1,0.1-0.1,0.2-0.2,0.3c0,0-0.1,0-0.1,0c-0.1,0.1-0.2,0.4-0.4,0.4c-0.1,0.4-0.4,0.4-0.4,0.8c-0.3,0.1-0.4,0.5-0.6,0.6
		c-0.3,0.6-0.8,0.8-1,1.6c0,0.3,0.4,0.2,0.6,0.2c0.2,0.2,0.4,0.5,0.7,0.7c0.2,0.2,0.5,0.4,0.5,0.9c0,0.4-0.2,0.5-0.4,0.5
		c-0.3,0.1-0.3-0.2-0.4-0.4c-0.5-0.9-2.6-0.9-3.4-0.2c-0.3-0.1-0.5,0.2-0.8,0.1c-0.2,0.2-0.4,0.2-0.6,0.3c0,0-0.2,0-0.2,0.1
		c0,0,0,0.2-0.1,0.2c-0.1,0.1-0.3,0.1-0.4,0.2c-0.2,0.2-0.4,0.4-0.4,0.7c0,0.6,0.5,0.5,0.7,0.9c0.7,0.2,1.7-0.2,2,0.6
		c0,0.6-0.4,0.6-0.6,0.9c-0.8,0-1.7,0-2.6,0.1c-0.9,0.1-1.8,0.5-2.6,0.7c-1.1,0.7-2,1.4-3.1,2.1c-0.1,0.2-0.3,0.3-0.4,0.5
		c-0.2,0.1-0.2,0.5-0.4,0.4c0,0.6-0.3,0.9-0.3,1.4c0,1,0.6,1.3,1.1,1.7c0.7,0.1,1.4,0.2,2,0.4c0.6-0.6,1.2-1.3,1.7-2.1
		c0.4,0.1,0.3-0.5,0.7-0.4c0.1,0.1,0.2,0.4,0.3,0.6c0,0.5-0.4,0.5-0.6,0.7c-0.1,0.4-0.4,0.5-0.5,0.8c0.2,0.3,0.9-0.1,0.9,0.3
		c0.1,0.4-0.3,0.2-0.3,0.4c-0.1,0.1-0.3,0.1-0.4,0c-0.3,0.1-0.6,0.2-1,0.2c-0.4,0.2-0.4,0.8-0.9,0.8c-0.1,0.5-0.5,0.5-0.7,1.1
		c-0.3-0.1-0.2,0.4-0.4,0.4c0,0.3-0.3,0.4-0.4,0.5c-0.3,0.3-0.4,0.7-0.7,0.9c-0.2,0.6-0.4,0.9-0.7,1.3c-0.1,0.3,0,1-0.4,0.8
		c-0.2-0.4,0.1-0.9,0.1-1.4c0.2-0.2,0.3-0.7,0.5-1.1c0-0.1,0.1,0,0.1-0.1c0-0.1,0.1,0,0.2-0.1s0-0.2,0.1-0.3
		c0.1-0.1,0.2-0.3,0.4-0.3c0-0.2,0-0.3,0.1-0.3c0.2-0.4,0.5-0.6,0.7-1.1c0.1-0.2,0.3-0.2,0.3-0.5c0.2,0,0.3-0.2,0.4-0.4
		c-0.1-0.2-0.5,0-0.7-0.1c-0.2-0.2-0.4-0.2-0.7-0.2c-0.3-0.3-0.7-0.5-1.1-0.7c-0.1-0.2-0.2-0.5-0.4-0.5c-0.1-0.5-0.3-0.9-0.3-1.5
		c0-0.4,0.1-0.5,0.1-0.9c0.2-0.2,0.2-0.7,0.4-1c0.1,0,0.1-0.1,0.1-0.2c0.2,0,0.3-0.3,0.4-0.4c0.3-0.4,0.7-0.7,1.1-1.1
		c0.5-0.5,1.1-0.8,1.7-1.2c0.6-0.3,1.2-0.7,1.8-0.9c0.6-0.2,1.3-0.4,2-0.6c0-0.5-0.4-0.5-0.4-1.1c0.1-0.2,0-0.4,0.1-0.7
		c0.4-0.7,1-1.3,1.7-1.7c0.2-0.2,0.5-0.2,0.7-0.4c0.6-0.1,1.1-0.2,1.5-0.5c0.5,0.1,0.8-0.2,1.3-0.2v-0.9c0.2,0,0.2-0.4,0.3-0.5
		c0.1-0.2,0.3-0.2,0.4-0.3c0,0,0-0.2,0-0.2c0.1-0.1,0.2,0,0.3-0.1c0.1-0.4,0.2-0.6,0.4-0.7c0-0.4,0.3-0.4,0.4-0.6
		c0.2-0.2,0.3-0.5,0.4-0.7c0,0,0.1,0,0.1,0c0.1-0.1,0.1-0.1,0.2-0.2c0.1-0.1,0.1-0.2,0.2-0.3c0.2-0.2,0.4-0.4,0.6-0.5
		c0.1-0.1,0.1-0.3,0.2-0.3c0.1-0.1,0.3,0,0.3-0.2c0.2,0.1,0.1-0.2,0.2-0.2c0.1-0.1,0.3-0.1,0.5-0.2c0.1-0.3,0.4-0.2,0.5-0.5
		C231.4,35.6,231.5,36,231.6,36.3z"/>
	<path d="M234.8,56.8c0-0.2,0-0.3,0-0.5c0-1.1,0.7-1.9,0.9-2.8c0.6-1.3,1.6-3.3,2.3-4.5c0,0,0.2,0,0.2-0.1c0,0,0-0.1,0-0.2
		c0-0.1,0.3-0.4,0.4-0.6c0.1-0.3,0.4-0.9,0.7-1.4c0.1-0.2,0.2-0.1,0.2-0.4c0,0,0,0,0,0c0.2,0,0.5-0.8,0.8-1.1
		c0.1-0.3,0.3-0.3,0.4-0.6c0,0,0,0-0.1,0c0,0-0.2,0-0.2,0c-0.1,0-0.2-0.1-0.2-0.1c0,0-0.1,0-0.1,0.1c-0.5,0.1-2.2,0-2.2,0.5
		c0,0.3,0.4,0.5,0.4,1.3c-0.6-0.2-0.6-1.2-1.3-1.2c-0.2,0-0.2-0.4-0.3-0.5c0.2-1.5,2.4-0.6,3.8-1.3c0.2,0,0.5,0,0.7,0
		c0.6,0,1.2-0.1,1.7-0.1c1.6,0,3.3,0.5,4.3,1.4c0.3,0.5,0.6,1.3,0.7,2.2c-0.1,0.4-0.2,1.3-0.3,1.6c-0.1,0.4-0.5,0.7-0.5,0.7
		c-0.2,0.4,0,0.8-0.9,1.4c-0.2,0.6-0.8,1-1,1.2c-0.1,0.1-0.2,0-0.2,0.1c-0.1,0.1-0.5,0.7-0.7,0.9c-0.2,0.1-1.1,0.7-1.7,1.1
		c-0.4,0.3-0.8,0.5-1.2,0.7c-0.1,0.1-0.5,0.4-0.8,0.4h-0.1c-0.1,0-0.1,0.2-0.2,0.2H240c-0.1,0-0.5,0.4-0.9,0.4H239
		c-0.4,0.4-0.9,0.4-1.4,0.6c0,0-0.1,0.2-0.2,0.2c-0.2,0.1-0.5,0.1-0.7,0.2c-0.1,0-0.3,0.2-0.5,0.2c0-0.1,0-0.1-0.1-0.1
		c-0.1,0-0.2,0-0.2,0c-0.3,0-0.1-0.4-0.4-0.4c-0.2,0-0.4,0.1-0.5,0.1C234.9,56.9,234.9,56.9,234.8,56.8z M240,47.2
		c-0.3,0.4-0.6,1.2-1,1.6c-0.2,0.6-0.8,1.6-1,2.2c-0.4,0.3-0.6,1.3-1,1.6c0,0.4-0.3,0.4-0.3,0.6c0,0.1,0,0.1,0,0.2
		c0,0-0.3,0.5-0.3,0.9c0,0,0,0.1,0,0.1c0.1-0.3,0.4-0.7,0.7-0.7c0.1,0,0.1,0.2,0.1,0.2c0,0.2-0.1,0.5-0.2,0.5c0,0-0.5,1.1-0.6,1.3
		c-0.1,0-0.3,0.3-0.3,0.4c0,0,0,0.1,0.1,0.1c1.3-0.6,2.6-1,3.9-1.7c0.2-0.1,0.3-0.2,0.5-0.2c0,0,0.1,0,0.1,0c0.6-0.4,1.2-1,1.9-1.1
		c0.3-0.5,1-0.9,1.5-1.3c0.5-0.3,0.7-0.9,1.3-1.2c0,0,0-0.1,0-0.1c0-0.1,1.1-1.5,1.5-2.1c0-0.4,0.2-1,0.2-1.4c0-0.5-0.2-0.6-0.2-0.9
		V46c-0.2-0.1-0.5-0.5-0.7-0.5c-0.3,0-0.4-0.3-0.7-0.4c-1.2-0.3-2.1-0.5-3.5-0.4h-0.5v0.1c0,0.8-0.5,0.8-0.7,1.5
		c-0.1,0.2-0.1,0.7-0.2,0.9c0,0-0.1,0-0.1,0C240.2,47,240.1,47.1,240,47.2z"/>
	<path d="M250.6,55.3c0-0.2-0.5,0.2-0.5,0.3c-0.4,0.3-0.9,0.4-1.2,0.6c-0.1,0.2-0.2,0-0.4,0.1c0,0-0.2,0.2-0.2,0.2
		c-0.4,0.1-0.8,0-1.1,0.1c0-0.3-0.3-0.3-0.3-0.6c-0.1-0.4,0-0.8,0-1c0.1-0.4,0.5-1.3,0.8-1.6c0.5-0.6,1-1.9,1.5-2.4
		c0-0.2,0.2-0.3,0.4-0.4c0-0.3,0.2-0.3,0.3-0.5c0.1-0.1,0.2-0.3,0.4-0.4c0.1-0.1,0.1-0.4,0.4-0.3c0.3,0,0.2,0.5,0.4,0.6
		c-0.1,0.7-0.5,0.8-0.7,1.4c-0.4,0.2-0.5,0.9-0.7,1.2c-0.4,0.2-0.7,1.3-1.1,1.6c-0.2,0.5-0.6,0.6-0.7,1.3c0.3,0.3,0.8-0.1,1-0.3
		c0.5-0.1,1-0.4,1.4-0.7c0.4-0.3,0.8-0.6,1.2-0.9c0.3-0.2,0.3-0.5,0.6-0.7c0.3-0.1,0.6-0.5,1-0.6c0.2,0.7-0.1,1.3-0.8,1.8
		c-0.1,0.2-0.3,0.3-0.5,0.5C251.5,54.9,250.8,54.8,250.6,55.3z M253.7,42.9c0.2,0.4,0.2,1,0.2,1.6c-0.2,0.4-0.7,0.2-1,0
		C252.9,43.6,252.9,42.7,253.7,42.9z"/>
	<path d="M251,55.3c0-0.4,0-1,0-1c0.6-0.2,1.3-1.3,1.8-1.7c0.6-0.6,1.5-1.7,2.2-2.2c0.4-0.3,0.7-0.7,1-1c0.3-0.3,0.6-0.7,1-0.7
		c0.1,0.2,0.2,0.4,0.3,0.5c0.1,0.4-0.1,0.7-0.2,0.9c-0.2,0.4-0.3,0.8-0.5,1.2c0,0,0,0.2,0,0.2c-0.1,0.2-0.8,2-0.9,2.4
		c-0.2,0.3-0.4,0.5-0.5,0.9c0.2,0.3,0.4-0.2,0.7,0c0.6-0.2,1.3-0.5,2-0.7c0.7-0.5,1.5-1,2.2-1.5c0,0.5,0.1,1,0,0.9
		c-0.2,0.1-0.4,0.5-0.5,0.6c0,0-0.2,0.2-0.2,0.2c-0.1,0-0.1,0-0.2,0.1c-0.2,0.2-0.3,0.4-0.5,0.5c-0.1,0.1-0.2,0.1-0.2,0.1
		c-0.2,0.1-0.3,0.2-0.5,0.3c-0.2,0.1-0.2,0.1-0.4,0.2c-0.2,0.1-0.7,0.2-1,0.5c-0.8,0.1-1.7,0.7-2.6,0.6c-0.3,0-0.6-0.3-0.9-0.3
		c-0.2-0.3-0.4-0.6-0.7-0.7c-0.1-0.3-0.1-0.6,0-0.9c-0.2-0.1-0.2,0.2-0.4,0.2c0,0.2-0.3,0-0.3,0.2C251.2,55.2,251,55.4,251,55.3z
		 M254.4,54.3c0.2-0.3,0.9-1.5,1-2.1c0.2-0.1,0.3-0.9,0.4-1c0-0.2,0-0.4,0.2-0.4c0-0.1,0-0.3-0.2-0.2c0,0.2-0.1,0.2-0.1,0.3
		c-0.5,0.2-0.6,1-1.2,1.2c-0.3,0.5-1.5,1.7-1.9,2.1c0.4,0.4,0.6,1,1.2,0.9C254.1,55,254.3,54.7,254.4,54.3z"/>
	<path d="M260.4,50.9c0.1,0,0.2-0.3,0.4-0.4c0.4-0.1,0.6-0.6,1-0.7c0.2-0.3,0.4-0.7,0.6-1c0.4-0.1,0.7-0.4,1.2-0.4
		c0.2,0.3,0.8,0.6,0.7,1.2c0.1,0.4,0.1,0.8,0.2,1.1c0,0,0.1,0.1,0.2,0c0.2-0.1,0,0,0.2-0.1c0.3-0.2,0.6-0.1,0.6,0
		c0,0.2-0.3,0.8-0.4,0.9c0,0-0.1,0-0.2,0.1c-0.2,0.1-0.1,0-0.3,0.2c-0.2,0.1-0.3,0.2-0.3,0.2c-0.2,0.9-0.6,1.3-0.9,1.9
		c-0.1,0.1-0.5,0.4-0.4,0.6c-0.2,0-0.1,0.2-0.3,0.5c-0.5,0.6-1.1,1.1-1.7,1.6c-0.5,0.2-1.2,0-1.6-0.1c-0.2-0.5-0.2-1.3-0.2-2
		c0.1-0.2,0.1-0.5,0.2-0.7c0-0.1,0.2-0.1,0.2-0.2c0.1-0.1,0-0.3,0.1-0.4c0.2-0.5,0.2-1,0.5-1.3C260.3,51.6,260.4,51.2,260.4,50.9z
		 M261.2,52.2c-0.2,0-0.2,0.3-0.3,0.4c-0.3,0.6-0.5,1.2-0.8,1.7c0,0.5-0.2,0.6-0.2,1.2h0.7c0.2,0,0.7-0.5,0.7-0.5
		c0.1-0.1,0.1,0,0.2-0.1c0.2-0.2,0.4-0.6,0.7-0.6c0.1-0.2,0.3-0.5,0.4-0.7c0.2-0.2,0.3-0.5,0.5-0.6c0.1-0.3,0.2-0.3,0.2-0.6
		c-0.2,0.2-0.7,0.3-1,0.3c-0.1-0.1-0.3-0.1-0.5-0.1c-0.2-0.2-0.3-0.4-0.6-0.5C261.3,52,261.2,52,261.2,52.2z M263,50.1
		c-0.1,0.3-0.3,0.4-0.5,0.4c0,0.2-0.4,0.5-0.2,0.7c0-0.2,0.1,0,0.1,0.2c0.4,0,1-0.1,1.3-0.3c0-0.4,0.1-1-0.1-1.3
		c-0.1,0-0.4-0.1-0.5-0.1C263.1,49.9,263,49.9,263,50.1z"/>
	<path d="M272.6,52.8c0,0,0.2,0.8,0.2,0.8s-0.5,0.8-0.5,0.8c-0.8,0.7-1.5,1.7-2.6,2c-0.5,0.1-1,0-1.4-0.1c-0.2,0-0.2,0-0.4-0.1
		c0,0,0-0.1-0.1-0.1c-0.2,0-0.3-0.4-0.4-0.6c0-0.5,0.1-0.7,0.2-1.1c0.4-0.7,0.6-1.5,1.1-2.1c0-0.5-0.1-1.1-0.2-1.4
		c-0.4,0.2-1.7,2.8-2.1,2.9c0,0-0.5-0.6-0.5-0.5c0.2-0.3,0.6-1.1,0.8-1.3c0.2-0.3,0.9-1.8,1.2-2c0-0.2,0.5-0.7,0.6-0.8
		c0.1-0.1,0-0.6,0.3-0.4c0.3,0.1,0.3,0.8,0.4,1.4c0.1,0.3,0.2,0.7,0.3,0.9c-0.1,0.5,0.2,0.7,0.2,1.2c-0.1,0-0.1,0.3-0.2,0.4
		c-0.1,0.1-0.2,0.2-0.2,0.3c-0.2,0.6-0.4,0.9-0.7,1.4c-0.1,0.3-0.4,0.3-0.3,0.8c0.3,0.2,0.7,0.3,1.2,0.2c0.9-0.1,1.6-1.1,2.2-1.7
		C272.1,53.4,272.6,52.8,272.6,52.8z"/>
	<path d="M284.4,52.3c-0.4,0.4-0.4,0.8-0.7,1c-0.3,0.3-0.2,0.3-0.5,0.6c-0.2,0.4-0.5,0.4-0.8,0.7c-0.4,0.4-1,0.9-1.1,0.9
		c-0.2,0.1-0.7,0.5-0.8,0.6c-0.3,0.1-0.6,0.2-1,0.3c-0.2,0.1-0.2,0.2-0.5,0.2c-0.3,0.3-0.9,0.4-1.3,0.4s-0.7,0-0.7-0.9
		c0-1,0.4-1.7,0.6-2.5c0-0.1,0-0.1,0-0.1c-0.1,0-0.2,0.3-0.3,0.3c0,0,0,0.3-0.1,0.3c-0.1,0-0.2,0.5-0.4,0.5c0,0,0,0-0.1,0
		c-0.2,0.4-0.6,0.5-0.8,0.8c-0.3,0.2-0.6,0.5-1,0.7c-0.3,0.3-0.6,0.4-0.8,0.7c-0.4,0.1-0.9,0.1-1.3,0.3h-0.8c-0.2-0.3-0.4-0.7-0.4-1
		c0-0.7,0.2-1.2,0.2-1.8c0.5-0.8,1-2.2,1.6-2.5c0.2-0.4,0.5-0.6,0.7-1c0,0,0.1,0,0.1,0c0.2,0,0.2-0.2,0.3-0.3
		c0.2-0.1,0.4-0.1,0.4-0.3c0.4-0.2,0.7-0.3,0.9-0.5c0.2-0.1,0.5-0.1,0.6-0.3c0.3-0.1,0.7-0.1,1-0.2c0.6,0.1,1.2,0.4,1.6,0.7
		c0.8-1.2,1.5-2.7,2.2-4c0.3-0.8,0.8-1.3,1.1-2.1c0.2-0.3,0.5-0.5,0.6-1.1c0.1-0.2,0.3-0.2,0.3-0.5v-0.1c0.2,0,0.1-0.3,0.3-0.3h0.1
		c0.1-0.4,0.3-0.7,0.4-1.1c0.3-0.4,0.8-0.6,0.9-1.2h0.2c0.1,0,0.2,0,0.3,0.1v0.1c0,0.1,0.1,0.1,0.1,0.2c0,0.8-0.5,0.9-0.5,1.7
		c-0.2,0.1-0.2,0.4-0.4,0.4c-0.1,0.6-0.3,1-0.5,1.5c-0.2,0.4-0.4,1.1-0.7,1.2c-0.2,1.2-0.8,1.8-1.2,2.8c-0.4,0.6-1.3,2-1.5,2
		c0,0-0.1,0-0.1,0c0,0.5-0.6,0.6-0.7,1.2c-0.5,0.4-0.9,1.6-1.2,1.6c0,0-0.1,0-0.1,0c-0.2,0.4-0.4,0.9-0.7,1.1c0,1-0.5,1.3-0.6,2.2
		c0,0.1,0.2,0.2,0.3,0.2c0.4,0,0.5-0.4,0.9-0.4h0.1c0.4-0.3,0.7-0.1,1-0.4c0.4-0.3,0.4-0.2,0.8-0.4c0.7-0.7,0.5-0.5,1.1-1
		c0.3-0.3,0.3-0.1,0.6-0.6c0.4-0.2,0.4-0.4,0.8-0.5c0.3-0.4,0.6-0.6,0.9-1C284.4,52.1,284.2,52.1,284.4,52.3z M278.2,50.6
		c0-0.2-0.3,0-0.3-0.2c0-0.2,0.1-0.2-0.1-0.2h-0.2c-0.5,0-0.8,0.1-1.2,0.3c0,0,0,0.1-0.1,0.1c-0.4,0.2-0.7,0.2-1,0.6
		c-1.6,1.3-2.4,3.1-2.5,3.2c-0.1,0.4-0.4,0.7-0.4,1.4c0,0.3,0.1,0.3,0.2,0.3c0.1,0,0.3-0.1,0.4-0.1c0.1,0,0.1,0,0.2,0.1
		c0.2-0.2,0.5-0.4,0.8-0.4c0.2-0.2,0.5-0.5,0.8-0.5c0.8-0.9,1.8-1.3,2.5-2.4c0,0,0,0,0,0c0.2,0,0.5-0.5,0.5-0.4c0,0,0-0.1,0-0.1
		c0.2-0.1,0.9-0.8,0.9-1.2C278.6,50.9,278.4,50.6,278.2,50.6z M283.4,43.8c-0.1,0.2-0.2,0.4-0.3,0.6c0,0.1-0.4,0.6-0.4,0.6
		c-0.1,0-0.1,0.6-0.3,0.6h0c0,0,0,0,0,0c0,0.3-0.3,0.7-0.5,0.8c0,0.5-0.3,0.6-0.4,1.1c-0.1,0.2-0.3,0.2-0.4,0.3c0,0.1,0,0.1,0,0.2
		c0,0.3-0.3,0.4-0.3,0.8c0,0,0,0.1,0.1,0.1c0.3-0.5,0.8-1,1-1.5c0.3-0.5,1-1.4,1-1.5c0,0,0-0.1,0-0.1c0-0.1,0.1-0.1,0.1-0.4
		c0-0.2,1.2-2,1.2-2.6c0,0,0-0.1,0-0.1C283.9,43,283.7,43.4,283.4,43.8z"/>
	<path d="M289.7,54.3c-0.2,0.5-2.2,2.3-3.4,2.4c-1,0.1-1.8-0.2-2.4-0.8c-0.3-0.1-0.5-0.7-0.4-1.1c-0.1-0.4-0.2-1-0.1-1.5
		c0,0,0.1,0,0.1-0.1c0-0.2,0.3-1.3,0.5-1.4c0.1-0.3,0.2-0.6,0.4-0.7c0.2-0.6,0.6-0.9,0.8-1.4c0.4-0.3,0.8-0.5,1.1-1
		c0.5,0.1,0.7-0.3,1.2-0.3c0.2,0.2,0.2,0.5,0.2,0.9c0,0.2,0,0.1-0.1,0.2c-0.1,0.2,0,0.5-0.2,0.7c0,0.9-0.6,1.8-0.6,2.6
		c-0.2,0.2-0.4,0.6-0.5,0.9s-0.3,0.3-0.4,0.6c-0.3,0.2-0.5,0.6-0.9,0.7c0.2,0.3,0.6,0.4,0.8,0.5h0.2c0.8-0.1,2-0.8,2.6-1.5
		c0.1-0.2,0.4-0.4,0.6-0.5c0.1-0.1,0.4-0.3,0.6-0.3C289.7,53.4,289.7,54.1,289.7,54.3z M286.2,49.9c-0.4,0.4-0.7,1-1.1,1.3
		c-0.3,0.7-1,2-1,3.1c0.2,0,0.5-0.2,0.6-0.2c0.2-0.2,0.3-0.2,0.4-0.4c0.5-0.5,1-2,1.3-2.7c0.1-0.3,0.3-0.6,0.3-1.1
		c0-0.1,0-0.2-0.1-0.2C286.5,49.9,286.3,49.8,286.2,49.9z"/>
	<path d="M296.3,52.8c0,0,0.2,0.8,0.2,0.8s-0.5,0.8-0.5,0.8c-0.8,0.7-1.5,1.7-2.6,2c-0.5,0.1-1,0-1.4-0.1c-0.2,0-0.2,0-0.4-0.1
		c0,0,0-0.1-0.1-0.1c-0.2,0-0.3-0.4-0.4-0.6c0-0.5,0.1-0.7,0.2-1.1c0.4-0.7,0.6-1.5,1.1-2.1c0-0.5-0.1-1.1-0.2-1.4
		c-0.4,0.2-1.7,2.8-2.1,2.9c0,0-0.5-0.6-0.5-0.5c0.2-0.3,0.6-1.1,0.8-1.3c0.2-0.3,0.9-1.8,1.2-2c0-0.2,0.5-0.7,0.6-0.8
		c0.1-0.1,0-0.6,0.3-0.4c0.3,0.1,0.3,0.8,0.4,1.4c0.1,0.3,0.2,0.7,0.3,0.9c-0.1,0.5,0.2,0.7,0.2,1.2c-0.1,0-0.1,0.3-0.2,0.4
		c-0.1,0.1-0.2,0.2-0.2,0.3c-0.2,0.6-0.4,0.9-0.7,1.4c-0.1,0.3-0.4,0.3-0.3,0.8c0.3,0.2,0.7,0.3,1.2,0.2c0.8-0.1,1.6-1.1,2.2-1.7
		C295.8,53.4,296.3,52.8,296.3,52.8z"/>
	<path d="M294.9,55.3c0-0.4,0-1,0-1c0.6-0.2,1.3-1.3,1.8-1.7c0.6-0.6,1.5-1.7,2.2-2.2c0.4-0.3,0.7-0.7,1-1c0.3-0.3,0.6-0.7,1-0.7
		c0.1,0.2,0.2,0.4,0.3,0.5c0.1,0.4-0.1,0.7-0.2,0.9c-0.2,0.4-0.3,0.8-0.5,1.2c0,0,0,0.2,0,0.2c-0.1,0.2-0.8,2-0.9,2.4
		c-0.2,0.3-0.4,0.5-0.5,0.9c0.2,0.3,0.4-0.2,0.7,0c0.6-0.2,1.3-0.5,2-0.7c0.7-0.5,1.5-1,2.2-1.5c0,0.5,0.1,1,0,0.9
		c-0.2,0.1-0.4,0.5-0.5,0.6c0,0-0.2,0.2-0.2,0.2c-0.1,0-0.1,0-0.2,0.1c-0.2,0.2-0.3,0.4-0.5,0.5c-0.1,0.1-0.2,0.1-0.2,0.1
		c-0.2,0.1-0.3,0.2-0.5,0.3c-0.2,0.1-0.2,0.1-0.4,0.2c-0.2,0.1-0.7,0.2-1,0.5c-0.8,0.1-1.7,0.7-2.6,0.6c-0.3,0-0.6-0.3-0.9-0.3
		c-0.2-0.3-0.4-0.6-0.7-0.7c-0.1-0.3-0.1-0.6,0-0.9c-0.2-0.1-0.2,0.2-0.4,0.2c0,0.2-0.3,0-0.3,0.2C295.1,55.2,294.9,55.4,294.9,55.3
		z M298.3,54.3c0.2-0.3,0.9-1.5,1-2.1c0.2-0.1,0.3-0.9,0.4-1c0-0.2,0-0.4,0.2-0.4c0-0.1,0-0.3-0.2-0.2c0,0.2-0.1,0.2-0.1,0.3
		c-0.5,0.2-0.6,1-1.2,1.2c-0.3,0.5-1.5,1.7-1.9,2.1c0.4,0.4,0.6,1,1.2,0.9C298,55,298.2,54.7,298.3,54.3z"/>
</g>
</svg>
